<?xml version="1.0" encoding="UTF-8"?>
<svg id="Layer_1" data-name="Layer 1" xmlns="http://www.w3.org/2000/svg" width="966" height="966" viewBox="0 0 966 966">
  <defs>
    <style>
      .cls-1 {
        fill: #050505;
      }

      .cls-2 {
        fill: #010101;
      }

      .cls-3 {
        fill: #030303;
      }

      .cls-4 {
        fill: #f6f6f6;
      }

      .cls-5 {
        fill: #d9d9d9;
      }

      .cls-6 {
        fill: #f4f4f4;
      }

      .cls-7 {
        fill: #d4d4d4;
      }

      .cls-8 {
        fill: #303030;
      }

      .cls-9 {
        fill: #020202;
      }

      .cls-10 {
        fill: #fff;
      }

      .cls-11 {
        fill: #f0f0f0;
      }

      .cls-12 {
        fill: #fafafa;
      }

      .cls-13 {
        fill: #f8f8f8;
      }

      .cls-14 {
        fill: #f7f7f7;
      }

      .cls-15 {
        fill: #fefefe;
      }

      .cls-16 {
        fill: #f3f3f3;
      }

      .cls-17 {
        fill: #090909;
      }
    </style>
  </defs>
  <path d="M0,966V0h966c0,321.7,0,643.4-.49,965.5-322.16.5-643.84.5-965.51.5M867.44,241.3c-38.56-63.56-91.51-116.69-154.38-154.9-67.42-41.28-144.08-64.15-222.63-66.4-25.91-1-51.62,1-77.24,4.7-33.05,4.8-65.21,13-96.31,25-74.54,28.32-140.52,76.15-191.34,138.7C61.17,266.27,23.65,363.65,18.77,465.5c-6.38,121.18,33.39,240.18,110.97,332,34.61,41.53,76.2,76.42,122.8,103,122.36,70.7,269.7,79.95,399.6,25.1,81.85-34.06,152.19-91.82,202.39-166.2,53.14-77.17,81.94-169.11,82.52-263.5,1.26-89.95-22.91-178.37-69.61-254.6h0Z"/>
  <path class="cls-14" d="M876.4,241.6c47.65,76.17,72.3,164.47,71,254.3-.59,94.39-30.04,186.34-84.4,263.5-51.34,74.38-123.29,132.14-207,166.2-32,13.3-65,22.7-99.2,28.5-106.26,18.33-215.59-.6-309.5-53.6-48-26.9-90-61.2-125.7-103C42.28,705.67,1.64,586.67,8.2,465.5c4.94-101.89,43.32-199.32,109.2-277.2C191.55,98.92,296.46,40.53,411.5,24.6c26.3-3.7,52.6-5.7,79-4.7,81.6,3,157.7,24.5,227.8,66.5,65,39,117.7,90.6,158,155.2M464,952.4c6.7,0,13.3-.1,20.6.1l6.3-.4c6-.3,12-.6,18.4-.6.6-.2,1.1-.3,2.6-.4,13.4-1.4,27-2,40.1-4.4,32.51-5.63,64.37-14.51,95.1-26.5,106.7-41.96,193.87-122.28,244.4-225.2,28.04-56.43,44.11-118.06,47.2-181,5.88-114.73-31.28-227.53-104.2-316.3C746.73,90.16,615.21,27.83,476.4,28c-12.16.03-24.31.7-36.4,2-19.4,2.2-39,4.2-58,8.2-51.33,10.69-100.4,30.25-145,57.8-67.46,41.09-123.19,98.89-161.8,167.8-35.19,62.22-55.32,131.81-58.8,203.2-1.5,28.3-.6,56.8,3.4,85,4,28.1,10.1,55.6,19,82.5,29.5,88.7,81,162,154.3,219.9,42.16,33.26,89.91,58.76,141,75.3,42,13.85,85.79,21.5,130,22.7h-.1Z"/>
  <path class="cls-2" d="M461,952c-43.16-1.21-85.91-8.72-126.9-22.3-51.09-16.54-98.84-42.04-141-75.3-72.16-56.3-125.85-132.88-154.2-219.9-8.8-26.84-15.16-54.42-19-82.4-3.91-28.19-5.08-56.69-3.5-85.1,3.43-71.4,23.57-141,58.8-203.2,38.61-68.91,94.34-126.71,161.8-167.8,44.58-27.6,93.66-47.17,145-57.8,19-4,38.6-6,58-8.2,12.09-1.3,24.24-1.97,36.4-2,29.3-.2,58.3,2.8,87,8.3,106.56,20.26,202.58,77.4,271.2,161.4,152.22,184.97,137.44,455.69-34,623-44.01,43.13-96.25,76.96-153.6,99.5-30.7,11.98-62.53,20.86-95,26.5-13.3,2.4-26.8,3-40.8,4.1-1.2,0-1.8.2-2.3.4-6,.3-12,.6-18.8.6-2.6,0-4.4.2-6.2.4-7.67.14-15.34.07-23-.2M637.9,402.2h-49.8c0,13,0,25.4-.2,38.7v54.7h78.8v-8.6h-69.1c0-5.5,0-10.5.2-16.2.2-6.8.3-13.7,1.3-20.4,2.3-.1,4.5-.2,7.7,0,8.4-.1,16.7-.2,26,0h29v-8c-8,0-16,0-24.8-.2l-15.9-.1h-5.1c-4.6.1-9.3.2-14.9.1-4.7.7-2.8-3-3.2-6v-24.8c.4-.5.7-.9,2-1,9-.1,18-.2,28,0,4.7-.1,9.4-.2,15,0,3-.1,6-.2,10,0l12.8-.2.3-2v-5.8c-6.1,0-11.6,0-17.9-.2h-10M557,437v-34.7h-8.3c0,14,0,27.8-.3,42.5v38l-1.5.7c-1-1.3-1.9-2.8-3-4-24-24.3-48-48.5-71.7-73.1-4.3-4.4-8.5-4.9-13.8-4v93.1h8.6v-81.5l2.4,2.3c24.4,24.8,49,49.5,73.2,74.4,4.2,4.3,8.2,6.3,14.1,4.6,0-19,0-38.2.2-58.2M69.7,441.5v53.5c23.1,0,45.5,1.2,67.7-.4,18.3-1.2,28.2-11.8,23.5-33-2.4-10.9-11.6-13.5-21.1-16,1.8-.7,3.4-1.1,4.8-1.8,5.7-2.5,9.4-6.7,10.3-13,2.3-16.1-5.7-26.8-22-27.7-17.4-.9-34.9-.7-52.4-1h-10.7v39.4M491.8,911.5c-6.3.2-12.6.1-18.8.6-6.4.5-12.9,1.3-19.2,2.7-2.1.5-3.8,3.2-5.7,4.9,1.8,1.7,3.3,3.7,5.4,5,3.7,2.1,7.7,3.7,11.5,5.6.7.3,1.3,1.2,1.5,1.9,1.5,6.7,6.5,7.6,12.1,7.9,1.2,0,3,.7,3.2,1.5,1,3.4,3.5,4,6.2,3.3,4.7-.9,9.3-2,13.9-3.4,6.1-1.7,12.2-4.9,18.4-5.2,12.17-.66,23.67-5.79,32.3-14.4,4-3.7,3-7.8-2-9.5-19.2-6.6-38.6-9-58.8-.8M383,475.9c-1.74,4.93-5.77,8.7-10.8,10.1-13.5,4.35-27.89,5.17-41.8,2.4-8.3-1.4-16.4-4.3-24.6-6.6-1.6,8.6-1.3,9,7.2,11.3,15.7,4.3,31.8,5,48,3.7,8.4-.6,16.6-3,23.5-8.4,6.05-4.38,9.04-11.85,7.7-19.2-1.3-8.5-7.2-13.3-14.1-16-11.6-4.4-23.6-7.3-35.4-11.2-8-2.7-16.3-5.3-23.7-9.4-7-3.9-6.7-12.5-.3-17.5,2.3-1.8,5-3.2,7.9-4,12.02-3.53,24.73-4.04,37-1.5,7.1,1.4,14.1,4,21.2,6v-9.6c-5.5-1.3-11-2.7-16.5-3.6-16.2-2.4-32.4-3.4-48.2,2.5-9.8,3.6-15.3,10.9-15,19.9.2,9.5,6.5,14.8,14.3,18,8.2,3.3,17,5.5,25.4,8.1,9.8,3,19.7,5.6,29.2,9.2,6.3,2.4,10.2,7.4,9,15.7M703.5,404.8c-9,3.5-15,9.6-15,19.6s6.4,15,14.4,18.4c5.6,2.4,11.5,4.3,17.3,6,12.3,3.8,24.8,7,37,11.1,5.8,2,10,6.5,9.6,13.2-.4,6.8-5,10.7-11.3,12.9-13.55,4.31-27.96,5.1-41.9,2.3-8.3-1.5-16.4-4.4-24.5-6.6v8.7c15.41,5.33,31.71,7.64,48,6.8,9.32.02,18.52-2.1,26.9-6.2,16-8.8,16.8-27.1.8-35.8-9.6-5.1-20.7-7.6-31-11.2-9.5-3.1-19.1-5.5-28.3-9.3-6.6-2.7-8.5-7.1-7.4-13,1-5.4,5-8,9.6-9.8,12.64-4.32,26.22-5.15,39.3-2.4,7.2,1.3,14.1,4,21.4,6v-9.3l-7-1.8c-19-4-38-6.1-57.8.6M855.2,496.8c6.4-2.1,13-3.6,19-6.6,7.36-3.37,11.78-11.04,11-19.1-.5-9.4-6.6-14.7-14-17.7-10.6-4.2-21.8-6.9-32.5-10.5-8.8-2.9-17.8-5.3-26-9.5-8.2-4.3-7.9-13.6-.3-19.1,1.47-1.06,3.09-1.9,4.8-2.5,12.5-4.21,25.89-5,38.8-2.3,7.2,1.3,14.2,4,21.4,6v-9.2c-12.88-3.81-26.27-5.67-39.7-5.5-9.7.2-19.3,1.1-28,5.6-6.9,3.5-11.4,8.8-11.8,17-.4,8.3,3.7,14,10.4,17.3,6.7,3.4,14,6,21.2,8.2,12.2,4,24.7,7,36.9,11.1,5.8,2,10,6.4,9.6,13.1-.4,7-5,10.9-11.3,13-15.67,4.73-32.32,5.14-48.2,1.2-6.2-1.3-12.1-4-18.2-6.1v9.5l3.7,1.3c17.1,5.4,34.6,5.9,53.2,4.8M279.2,417.5v-15h-8.7l-.1,3.8c0,19.5-.2,39,0,58.5.1,9-3.8,15.3-11.7,19-15.96,7.61-34.4,8.05-50.7,1.2-9.7-3.7-14.6-10.9-14.2-22,.5-18.4.1-36.9.1-55.4v-5.2h-9l.1,63.2c0,13,7,23,19.3,27.3,18,6.31,37.6,6.31,55.6,0,11.61-3.84,19.38-14.77,19.2-27-.3-15.8,0-31.6,0-48.4M779.7,555.9c2,5.1,4.2,10.2,6.1,15.3,3.2,8.2,3.1,8.2,11.9,7.7l.9-.3,24.3-62.8,24.5,62.9q9.4,1,12.6-7.3l11.1-27.7,13.8-34.4c-5-1.4-7.4.2-9.2,5-4.8,13.3-10.4,26.5-15.7,39.7l-7.7,19.3-1.4-2.8c-7.4-19.3-14.9-38.6-22.1-58-1.1-2.8-2.4-3.8-5.4-3.7-3,.1-5,.2-6.4,3.7-4.8,13.5-10,26.7-15,40l-8.4,21-25.6-64.2h-7.1l18.8,46.6M696.7,508.2c-4.8,1.3-9.8,2-14.3,4-13.8,6-20.3,17.1-20.3,32s6.4,25.6,19.7,31.2c16.4,7,33.4,7,49.9-.1,11.39-4.74,18.92-15.76,19.2-28.1,1-13.6-3.3-25-15.3-32.4-11.7-7.4-24.8-7.7-38.9-6.6M411.1,545.7c1.5-.2,3-.7,4.6-.7h43.8v-6.1h-48.3v-24h50.8v-5.6h-57.7v69.5h58.6v-5.9h-51.9v-27.2M87.5,573.6l-17-5.2c-.6,7-.6,6.8,6.1,8.8,10.91,3.12,22.35,3.97,33.6,2.5,6.6-.8,13.4-3,19.1-6.3,8.2-4.7,9.1-16.7,1.4-21.9-7-4.7-15.4-7.3-23.4-10.3-7.4-2.7-15.2-4.5-22.8-7-4.4-1.5-8-4.2-7.7-9.7.4-5.3,4.2-7.9,8.7-9,14.72-4.11,30.43-2.84,44.3,3.6v-7.2c-3.2-.8-6.2-1.7-9.3-2.3-13.04-3.22-26.72-2.73-39.5,1.4-5.9,2.2-10.3,6-11,12.9-.7,7.2,3.3,11.5,9.2,14.5,2,1.1,4.2,2,6.4,2.7,9.7,2.8,19.5,5.4,29.2,8.1,9,2.6,14.3,7.4,14,12.8-.2,6-5.7,10.9-15.7,11.8-8.2.7-16.6,0-25.7-.2M307.6,574.1l2.5,4.8h6.6c-.1-.5-.1-.9-.3-1.1-11.5-22.2-23-44.5-34.8-66.5-.7-1.4-3.4-2.3-5.1-2.2-1.97.15-3.79,1.13-5,2.7-10.1,19-20,38.1-30,57.3-1.7,3-3.2,6.3-4.9,9.5,5,1.4,7.7,0,9.4-4.4,1.3-3.6,3.5-6.8,5-10.3,1.2-2.7,3-3.5,5.8-3.4,10,.1,20.1,1,30-.2,11.2-1.4,17.4,2.8,20.8,13.8M162.8,570.8c4,2.1,8,4.9,12.3,6.3,15.04,4.78,31.25,4.32,46-1.3q6.6-2.4,5.5-9.6c-13.76,8.16-30.19,10.53-45.7,6.6-10.2-2.2-18.6-7.3-22-18-3.7-12-2.7-23.6,7.2-32.5,9.4-8.5,21.4-10,33.2-8.7,9.4,1,18.6,4.3,27.6,6.5v-5.6c-16-7-32.4-9-49.2-4.6-13.5,3.5-23.3,11.5-26.3,25.6-3.52,12.99.95,26.83,11.4,35.3M524.6,508.9c-3.4-.5-2.6,2-2.6,3.9-.02,21.13-.02,42.27,0,63.4,0,1,.3,1.9.4,2.6h6v-34h46.4v-5.8h-46.2v-24.1h48.7v-6h-52.7M418.4,455.5v40h8.6v-93.1h-8.6v53.1M640.4,579h10.7v-6.1h-51.1v-63.9h-5.7v70h46.2M349.5,579h38.7v-6.1h-51.2v-63.9h-5.7v70h18.2Z"/>
  <path class="cls-8" d="M484.3,952.4c1.5-.4,3.3-.7,5.4-.6-1.5.4-3.3.6-5.4.6ZM509.1,951.4c.4-.4,1-.6,1.7-.6-.4.4-1,.5-1.7.5v.1ZM461.2,952.2c.4-.3,1-.4,1.8-.3-.4.3-1,.3-1.8.3Z"/>
  <path class="cls-4" d="M69.8,441v-38.9h10.8c17.5.3,35,.1,52.4,1,16.3.9,24.3,11.6,22,27.7-.77,5.9-4.73,10.9-10.3,13-1.4.7-3,1-4.8,1.7,9.5,2.6,18.7,5.2,21.1,16,4.7,21.3-5.2,31.9-23.5,33.1-22.2,1.6-44.6.4-67.7.4v-54M79.4,487.4c18.5-.1,37,0,55.4-.6,7.4-.2,14.6-2.2,17.3-10.8,4-13.1-3.7-24.3-18-25-17.2-.7-34.4-.7-51.5-1-1.3,0-2.6.2-3.8.3,0,12.3,0,24.3.6,37.1M97.5,442.1c9.8,0,19.6.3,29.4-.2,4.7-.3,9.5-1.7,13.7-3.7,5.8-2.7,7.7-8.4,6.4-16.3-.8-4.8-5-8.8-10.6-9.9-3.5-.6-7.2-1.4-10.8-1.5h-46.6v31.5h18.6l-.1.1Z"/>
  <path class="cls-1" d="M492.2,911.4c19.8-8,39.2-5.6,58.4,1,5,1.7,6,5.8,2,9.5-8.63,8.61-20.13,13.74-32.3,14.4-6.2.3-12.3,3.5-18.4,5.2-4.6,1.3-9.2,2.5-13.9,3.4-2.7.6-5.2,0-6.2-3.3-.2-.8-2-1.5-3.2-1.5-5.6-.3-10.6-1.2-12.1-8-.2-.6-.8-1.5-1.5-1.8-3.8-2-7.8-3.5-11.5-5.6-2-1.3-3.6-3.3-5.4-5,1.9-1.7,3.6-4.4,5.7-4.9,6.3-1.4,12.8-2.2,19.2-2.7,6.2-.5,12.5-.4,19.2-.7h0Z"/>
  <path class="cls-13" d="M383,475.5c1.2-8-2.7-13-9-15.3-9.5-3.6-19.4-6.2-29.2-9.2-8.5-2.6-17.2-4.8-25.4-8.2-7.8-3.1-14.1-8.4-14.4-17.9-.2-9,5.3-16.3,15.1-20,15.8-5.8,32-4.8,48.2-2.4,5.5.9,11,2.3,16.5,3.6v9.5c-7.1-2-14-4.6-21.3-6-12.26-2.57-24.97-2.09-37,1.4-2.7.9-5.5,2.3-7.8,4-6.4,5-6.7,13.7.3,17.6,7.4,4.1,15.7,6.7,23.7,9.4,11.8,4,23.8,6.8,35.4,11.3,7,2.6,12.8,7.4,14,16,1.2,8-1.5,14.3-7.6,19.1-6.84,5.11-15.07,8.04-23.6,8.4-16.09,1.57-32.34.32-48-3.7-8.4-2.4-8.7-2.7-7-11.3,8,2.3,16.1,5.2,24.5,6.6,14,2.4,28,2.4,41.8-2.4,5-1.7,9-4.8,10.8-10.5ZM704,404.8c19.2-6.5,38.2-4.5,57.2-.4l7,1.8v9.4c-7.2-2.1-14.1-4.8-21.3-6-13.07-2.78-26.65-1.99-39.3,2.3-4.7,1.8-8.6,4.4-9.6,9.8-1,5.9.8,10.3,7.4,13,9.2,3.8,18.8,6.2,28.2,9.3,10.4,3.6,21.5,6,31,11.2,16.1,8.7,15.3,27-.7,35.8-8.34,4.11-17.5,6.27-26.8,6.3-16.29.89-32.6-1.42-48-6.8v-8.7c8.1,2.2,16.2,5.1,24.5,6.6,13.94,2.79,28.35,2,41.9-2.3,6.3-2.2,10.9-6.1,11.3-13,.5-6.6-3.8-11.1-9.6-13-12.2-4.2-24.7-7.4-37-11.2-5.8-1.7-11.7-3.6-17.3-6-8-3.5-14.5-8.8-14.4-18.4,0-10,6-16,15.4-19.7h.1ZM854.6,496.8c-18,1.1-35.6.6-52.7-4.8l-3.7-1.3v-9.5c6.1,2,12,4.8,18.2,6,15.87,3.97,32.52,3.59,48.2-1.1,6.2-2.1,10.9-6,11.3-13,.4-6.7-3.8-11.1-9.6-13-12.2-4.1-24.7-7.3-37-11.2-7.2-2.3-14.4-4.8-21.1-8.2-6.7-3.4-10.8-9-10.4-17.2.4-8.3,4.9-13.6,11.8-17.1,8.79-3.97,18.36-5.89,28-5.6,13.43-.17,26.82,1.69,39.7,5.5v9.2c-7.2-2-14.2-4.7-21.4-6-12.91-2.7-26.3-1.91-38.8,2.3-1.7.6-3.4,1.4-4.8,2.5-7.6,5.5-7.9,14.8.4,19.1,8,4.2,17.1,6.6,25.9,9.5,10.7,3.6,21.9,6.3,32.4,10.5,7.5,3,13.6,8.3,14,17.7.81,8.01-3.52,15.67-10.8,19.1-6,3-12.7,4.5-19.6,6.7v-.1Z"/>
  <path class="cls-4" d="M556.8,438v57.3c-5.9,1.7-10-.3-14-4.6-24.3-25-48.9-49.6-73.3-74.4l-2.5-2.3v81.6h-8.6v-93c5.3-1,9.5-.5,13.8,3.9,23.8,24.5,47.8,48.8,71.8,73.2,1.1,1.1,2,2.6,3,3.9l1.5-.7c0-12.6,0-25.3.5-38.5l7.8-6.4ZM279.1,418c0,16.3-.3,32.1,0,48,.14,12.19-7.63,23.07-19.2,26.9-18,6.31-37.6,6.31-55.6,0-11.86-3.7-19.77-14.89-19.3-27.3v-63.2h9v5.2c0,18.5.3,37-.2,55.5-.4,11,4.5,18.2,14.2,22,16.28,6.78,34.69,6.31,50.6-1.3,7.6-3.14,12.32-10.8,11.7-19-.2-19.5,0-39,0-58.5l.1-3.8h8.7v15.5Z"/>
  <path class="cls-6" d="M779.5,555.6l-18.5-46.3h7.1l25.6,64.2c3-7.7,5.8-14.3,8.3-21,5.1-13.3,10.3-26.5,15.1-40,1.3-3.5,3.5-3.6,6.4-3.7,3-.1,4.3.9,5.4,3.7,7.2,19.4,14.7,38.7,22.1,58l1.4,2.8,7.6-19.3c5.3-13.2,10.9-26.4,15.7-39.8,1.8-4.7,4.1-6.3,9.2-4.9l-13.8,34.4-11,27.7c-3.3,8.2-3.3,8.3-12.7,7.3l-24.5-62.9-24.3,62.8c-.3,0-.6.3-1,.3-8.7.5-8.6.5-11.8-7.7-2-5.1-4-10.2-6.3-15.6h0Z"/>
  <path class="cls-16" d="M697.1,508.1c13.7-1,26.8-.7,38.5,6.7,12,7.4,16.3,18.8,15.3,32.4-.9,13-7.4,22.8-19.2,28-15.85,7.17-34,7.24-49.9.2-13.3-5.6-19.7-16.7-19.7-31.2s6.5-26,20.3-32c4.5-2,9.5-2.7,14.7-4M744.1,541.7c-.4-12.3-6.2-21-17.7-25-14.1-5-28.5-5-42.2,1.1-8.82,3.74-14.7,12.23-15.1,21.8-1,11.3,1,21.7,11.4,28.4,11.9,7.6,25.2,7.7,38.4,5.4,17.2-3,25.4-13.3,25.2-31.7h0Z"/>
  <path class="cls-12" d="M411,546.2v26.8h52v5.9h-58.6v-69.5h57.6v5.6h-50.8v24h48.3v6h-43.8c-1.5,0-3,.6-4.7,1.3v-.1Z"/>
  <path class="cls-16" d="M87.8,573.7c8.7.1,17.1.8,25.3,0,10-.8,15.5-5.6,15.8-11.7.1-5.4-5-10.2-14.1-12.8-9.7-2.7-19.5-5.3-29.2-8.1-2.23-.65-4.38-1.56-6.4-2.7-5.9-3-9.9-7.3-9.2-14.5.7-6.9,5.1-10.7,11-12.9,13-4.7,26.2-4,39.4-1.4,3,.6,6.1,1.5,9.3,2.3v7.2c-13.85-6.47-29.56-7.78-44.3-3.7-4.5,1.2-8.3,3.8-8.7,9.1-.4,5.5,3.3,8.2,7.7,9.7,7.6,2.5,15.4,4.3,22.8,7,8,3,16.5,5.6,23.4,10.3,7.7,5.2,6.8,17.2-1.4,22-5.87,3.29-12.32,5.4-19,6.2-11.29,1.47-22.75.62-33.7-2.5-6.7-2-6.7-1.8-6-8.8,5.76,1.79,11.53,3.56,17.3,5.3h0ZM307.4,573.7c-3.2-10.6-9.4-14.8-20.6-13.4-9.9,1.2-20,.3-30,.2-2.8,0-4.6.7-5.8,3.4-1.5,3.5-3.7,6.7-5,10.3-1.7,4.4-4.4,5.8-9.4,4.4l4.9-9.5c10-19.2,19.9-38.3,30-57.3,1.23-1.54,3.04-2.51,5-2.7,1.7-.1,4.4.8,5.1,2.2,11.8,22,23.3,44.3,34.8,66.5.2.2.2.6.3,1h-6.7l-2.7-5M279.7,520.7l-3.2-5.5-20.3,39.1h41c-6-11.3-11.6-22-17.5-33.6ZM162.4,570.5c-10.24-8.48-14.59-22.17-11.1-35,3-14.1,12.8-22,26.3-25.6,16.44-4.17,33.82-2.55,49.2,4.6v5.6c-9-2.2-18.2-5.5-27.6-6.5-11.8-1.3-23.8.2-33.2,8.7-10,8.9-10.9,20.5-7.1,32.5,3.3,10.7,11.7,15.8,22,18,15.9,3.5,31.2,2,45.6-6.6q1.1,7.2-5.6,9.6c-14.75,5.62-30.96,6.08-46,1.3-4.3-1.4-8.1-4.2-12.5-6.6h0Z"/>
  <path class="cls-12" d="M525.1,509h52.2v5.9h-48.7v24h46.2v6h-46.4v33.9h-6c-.1-.7-.4-1.7-.4-2.6-.02-21.13-.02-42.27,0-63.4,0-1.8-.8-4.4,3.1-3.9v.1Z"/>
  <path class="cls-11" d="M418.4,455v-52.6h8.6v93.1h-8.6v-40.5Z"/>
  <path class="cls-10" d="M597.7,471.5v15.5h69v8.6h-78.6c0-5.7,0-11.2.4-17.1,1.45-1.29,2.95-2.53,4.5-3.7,1.6-1,3.1-2.2,4.7-3.3h0Z"/>
  <path class="cls-15" d="M640,579h-45.7v-69.9h5.7v63.9h51.1v6.1h-11.1v-.1ZM349,579h-17.7v-69.9h5.7v63.9h51.2v6.1h-39.2v-.1ZM597.7,437c.6,2.1-1.3,5.9,3.9,5.7l4.4,7.4c-2.3.1-4.5.2-7.5,0-4-3.5-7.1-6.8-10.3-10.1v-37.8c4.7,0,9.3,0,14.3.4-.9,2.8-2.2,5.1-3.5,7.5l-1.6,1.6c-6.8,5.2-4.3,12-3.7,18.1.2,2.5,2.6,4.9,4,7.3v-.1ZM556.9,437.5c-2.5,2.5-5,4.5-7.8,6.5-.3-13.8-.3-27.6-.3-41.6h8.2v35.1h-.1Z"/>
  <path class="cls-5" d="M588.1,440.4c3.3,2.9,6.5,6.2,10,9.7.1,7,0,13.9-.3,21-1.52,1.33-3.12,2.57-4.8,3.7-1.4,1-2.7,2.1-4.4,3.2-.5-12.3-.5-24.7-.5-37.6h0Z"/>
  <path class="cls-16" d="M606.5,450.3c-1.71-2.37-3.21-4.88-4.5-7.5,4.82-.44,9.67-.51,14.5-.2,2.8,4.3,4.2,2.3,5.5-.3,5,0,10,0,15.6.3-1.61,2.68-3.49,5.19-5.6,7.5l-25.5.2ZM599.5,410.3c.8-2.6,2.1-5,3.5-7.6,8.4-.4,16.7-.5,25.6,0,2.4,3.5-.9,5-1.6,7.4-9,0-18,.2-27.5.1v.1Z"/>
  <path class="cls-10" d="M632.4,450.2c1.6-2.4,3.6-4.8,5.6-7.5,8-.3,15.8-.3,24-.3v8c-9.7,0-19.4,0-29.6-.2Z"/>
  <path class="cls-15" d="M649,402.4h17c0,2,0,3.8-.3,6.3l-.7,1.4c-4,.1-8,.2-12.6-.2-1.24-2.45-2.38-4.95-3.4-7.5h0Z"/>
  <path class="cls-7" d="M597.8,436.6c-1.5-2-3.9-4.3-4-6.8-.7-6-3.2-12.9,3.5-17.8.5,8,.5,16,.5,24.6h0Z"/>
  <path class="cls-15" d="M627.4,410.2c.3-2.4,3.6-4,1.6-7.5,3-.4,6-.5,9.5,0,1.31,2.4,2.48,4.87,3.5,7.4-4.7,0-9.4.2-14.6.1Z"/>
  <path class="cls-11" d="M642.4,410.2c-1.36-2.39-2.49-4.9-3.4-7.5,3-.4,6-.5,9.6-.4,1.4,2.4,2.4,4.7,3.4,7.4-3,.5-6,.6-9.6.5Z"/>
  <path class="cls-7" d="M621.6,442.2c-1,2.7-2.3,4.7-4.6.4,1.4-.4,2.8-.5,4.6-.4ZM665.4,410.2c-.3-.4-.2-.7.3-1,.1.2,0,.6-.3,1Z"/>
  <path class="cls-3" d="M79,487c-.2-12.4-.2-24.4-.2-36.7,1.2-.1,2.5-.3,3.8-.3,17.1.3,34.3.3,51.4,1,14.4.7,22.1,11.9,18,25-2.6,8.6-9.8,10.6-17.2,10.8-18.4.6-37,.5-55.7.2h-.1Z"/>
  <path class="cls-2" d="M97,442.1h-18v-31.6h46.6c3.6,0,7.3.9,10.8,1.5,5.7,1.1,9.8,5,10.6,10,1.3,7.8-.6,13.5-6.4,16.2-4.2,2-9,3.4-13.7,3.7-9.8.5-19.6.2-29.9.2h0Z"/>
  <path class="cls-9" d="M744.2,542.1c.1,18-8,28.4-25.3,31.3-13.2,2.3-26.5,2.2-38.4-5.4-10.4-6.7-12.4-17-11.4-28.4.43-9.53,6.25-17.99,15-21.8,13.8-6,28.2-6.1,42.3-1.2,11.5,4,17.3,12.8,17.8,25.5h0Z"/>
  <path class="cls-17" d="M280,521l17.2,33.3h-41l20.4-39.1c1.12,1.92,2.22,3.86,3.3,5.8h.1Z"/>
</svg>