<svg xmlns="http://www.w3.org/2000/svg" xml:space="preserve" viewBox="0 0 988 985"><path d="M1 967V1h988c0 321.7 0 643.4-.5 965.5C659 967 330 967 1 967m887.2-724.7A466 466 0 0 0 730.3 87.4 468.9 468.9 0 0 0 502.6 21c-26.5-1-52.8 1-79 4.7-33.8 4.8-66.7 13-98.5 25a465 465 0 0 0-195.7 138.7A464.4 464.4 0 0 0 20.2 466.5a469.2 469.2 0 0 0 113.5 332 458.5 458.5 0 0 0 125.6 103A467.9 467.9 0 0 0 668 926.6a464 464 0 0 0 207-166.2 462.7 462.7 0 0 0 84.4-263.5 466.9 466.9 0 0 0-71.2-254.6z"/><path fill="#FFF" d="M1 967.5c329-.5 658-.5 987.5-.5.5 6.3.5 12.7.5 19H1v-18.5z"/><path fill="#F7F7F7" d="M888.4 242.6a466.8 466.8 0 0 1 71 254.3A462.5 462.5 0 0 1 875 760.4a464 464 0 0 1-207 166.2c-32 13.3-65 22.7-99.2 28.5a467.9 467.9 0 0 1-309.5-53.6c-48-26.9-90-61.2-125.7-103a469.1 469.1 0 0 1-113.4-332 464 464 0 0 1 109.2-277.2A465 465 0 0 1 423.5 25.6c26.3-3.7 52.6-5.7 79-4.7 81.6 3 157.7 24.5 227.8 66.5 65 39 117.7 90.6 158 155.2M476 953.4c6.7 0 13.3-.1 20.6.1l6.3-.4c6-.3 12-.6 18.4-.6.6-.2 1.1-.3 2.6-.4 13.4-1.4 27-2 40.1-4.4a493.3 493.3 0 0 0 95.1-26.5A459.7 459.7 0 0 0 903.5 696a457 457 0 0 0 47.2-181 461.1 461.1 0 0 0-104.2-316.3A461.5 461.5 0 0 0 488.4 29a349 349 0 0 0-36.4 2c-19.4 2.2-39 4.2-58 8.2A450.8 450.8 0 0 0 249 97 459.4 459.4 0 0 0 87.2 264.8 458 458 0 0 0 28.4 468c-1.5 28.3-.6 56.8 3.4 85 4 28.1 10.1 55.6 19 82.5 29.5 88.7 81 162 154.3 219.9a452.7 452.7 0 0 0 141 75.3 454.5 454.5 0 0 0 130 22.7z"/><path fill="#010101" d="M473 953a443.1 443.1 0 0 1-126.9-22.3 452.7 452.7 0 0 1-141-75.3A459.4 459.4 0 0 1 50.9 635.5a470 470 0 0 1-19-82.4 441 441 0 0 1-3.5-85.1 456.8 456.8 0 0 1 58.8-203.2A459.4 459.4 0 0 1 249 97a448 448 0 0 1 145-57.8c19-4 38.6-6 58-8.2a349 349 0 0 1 36.4-2c29.3-.2 58.3 2.8 87 8.3a461.5 461.5 0 0 1 271.2 161.4 461.1 461.1 0 0 1-34 623A459.7 459.7 0 0 1 659 921.2a493.3 493.3 0 0 1-95 26.5c-13.3 2.4-26.8 3-40.8 4.1-1.2 0-1.8.2-2.3.4-6 .3-12 .6-18.8.6-2.6 0-4.4.2-6.2.4a432.4 432.4 0 0 1-23-.2m177-549.8h-49.8c0 13 0 25.4-.2 38.7v54.7h78.8V488h-69.1c0-5.5 0-10.5.2-16.2.2-6.8.3-13.7 1.3-20.4 2.3-.1 4.5-.2 7.7 0 8.4-.1 16.7-.2 26 0h29v-8c-8 0-16 0-24.8-.2l-15.9-.1H628c-4.6.1-9.3.2-14.9.1-4.7.7-2.8-3-3.2-6v-24.8c.4-.5.7-.9 2-1 9-.1 18-.2 28 0 4.7-.1 9.4-.2 15 0 3-.1 6-.2 10 0l12.8-.2.3-2v-5.8c-6.1 0-11.6 0-17.9-.2h-10M569 438v-34.7h-8.3c0 14 0 27.8-.3 42.5v38l-1.5.7c-1-1.3-1.9-2.8-3-4-24-24.3-48-48.5-71.7-73.1-4.3-4.4-8.5-4.9-13.8-4v93.1h8.6V415l2.4 2.3c24.4 24.8 49 49.5 73.2 74.4 4.2 4.3 8.2 6.3 14.1 4.6 0-19 0-38.2.2-58.2m-487.2 4.4V496c23.1 0 45.5 1.2 67.7-.4 18.3-1.2 28.2-11.8 23.5-33-2.4-10.9-11.6-13.5-21.1-16 1.8-.7 3.4-1.1 4.8-1.8 5.7-2.5 9.4-6.7 10.3-13 2.3-16.1-5.7-26.8-22-27.7-17.4-.9-34.9-.7-52.4-1H81.8v39.4m422 470c-6.3.2-12.6.1-18.8.6-6.4.5-12.9 1.3-19.2 2.7-2.1.5-3.8 3.2-5.7 4.9 1.8 1.7 3.3 3.7 5.4 5 3.7 2.1 7.7 3.7 11.5 5.6.7.3 1.3 1.2 1.5 1.9 1.5 6.7 6.5 7.6 12.1 7.9 1.2 0 3 .7 3.2 1.5 1 3.4 3.5 4 6.2 3.3 4.7-.9 9.3-2 13.9-3.4 6.1-1.7 12.2-4.9 18.4-5.2a49.5 49.5 0 0 0 32.3-14.4c4-3.7 3-7.8-2-9.5-19.2-6.6-38.6-9-58.8-.8M395 476.9a16 16 0 0 1-10.8 10.1 83.3 83.3 0 0 1-41.8 2.4c-8.3-1.4-16.4-4.3-24.6-6.6-1.6 8.6-1.3 9 7.2 11.3 15.7 4.3 31.8 5 48 3.7 8.4-.6 16.6-3 23.5-8.4a19.4 19.4 0 0 0 7.7-19.2c-1.3-8.5-7.2-13.3-14.1-16-11.6-4.4-23.6-7.3-35.4-11.2-8-2.7-16.3-5.3-23.7-9.4-7-3.9-6.7-12.5-.3-17.5 2.3-1.8 5-3.2 7.9-4a76.4 76.4 0 0 1 37-1.5c7.1 1.4 14.1 4 21.2 6V407c-5.5-1.3-11-2.7-16.5-3.6-16.2-2.4-32.4-3.4-48.2 2.5-9.8 3.6-15.3 10.9-15 19.9.2 9.5 6.5 14.8 14.3 18 8.2 3.3 17 5.5 25.4 8.1 9.8 3 19.7 5.6 29.2 9.2 6.3 2.4 10.2 7.4 9 15.7m320.5-71c-9 3.5-15 9.6-15 19.6 0 9.6 6.4 15 14.4 18.4 5.6 2.4 11.5 4.3 17.3 6 12.3 3.8 24.8 7 37 11.1 5.8 2 10 6.5 9.6 13.2-.4 6.8-5 10.7-11.3 12.9a83.8 83.8 0 0 1-41.9 2.3c-8.3-1.5-16.4-4.4-24.5-6.6v8.7a127 127 0 0 0 48 6.8A61 61 0 0 0 776 492c16-8.8 16.8-27.1.8-35.8-9.6-5.1-20.7-7.6-31-11.2-9.5-3.1-19.1-5.5-28.3-9.3-6.6-2.7-8.5-7.1-7.4-13 1-5.4 5-8 9.6-9.8a74.2 74.2 0 0 1 39.3-2.4c7.2 1.3 14.1 4 21.4 6v-9.3l-7-1.8c-19-4-38-6.1-57.8.6m151.6 91.8c6.4-2.1 13-3.6 19-6.6a19 19 0 0 0 11-19.1c-.5-9.4-6.6-14.7-14-17.7-10.6-4.2-21.8-6.9-32.5-10.5-8.8-2.9-17.8-5.3-26-9.5-8.2-4.3-7.9-13.6-.3-19.1a19 19 0 0 1 4.8-2.5 74 74 0 0 1 38.8-2.3c7.2 1.3 14.2 4 21.4 6v-9.2a134 134 0 0 0-39.7-5.5c-9.7.2-19.3 1.1-28 5.6-6.9 3.5-11.4 8.8-11.8 17-.4 8.3 3.7 14 10.4 17.3 6.7 3.4 14 6 21.2 8.2 12.2 4 24.7 7 36.9 11.1 5.8 2 10 6.4 9.6 13.1-.4 7-5 10.9-11.3 13a91 91 0 0 1-48.2 1.2c-6.2-1.3-12.1-4-18.2-6.1v9.5l3.7 1.3c17.1 5.4 34.6 5.9 53.2 4.8m-576-79.3v-15h-8.7l-.1 3.8c0 19.5-.2 39 0 58.5.1 9-3.8 15.3-11.7 19A62 62 0 0 1 220 486c-9.7-3.7-14.6-10.9-14.2-22 .5-18.4.1-36.9.1-55.4v-5.2h-9l.1 63.2c0 13 7 23 19.3 27.3a84 84 0 0 0 55.6 0 28 28 0 0 0 19.2-27c-.3-15.8 0-31.6 0-48.4m500.6 138.4c2 5.1 4.2 10.2 6.1 15.3 3.2 8.2 3.1 8.2 11.9 7.7l.9-.3 24.3-62.8 24.5 62.9c9.4 1 9.4 1 12.6-7.3l11.1-27.7 13.8-34.4c-5-1.4-7.4.2-9.2 5-4.8 13.3-10.4 26.5-15.7 39.7l-7.7 19.3-1.4-2.8c-7.4-19.3-14.9-38.6-22.1-58-1.1-2.8-2.4-3.8-5.4-3.7-3 .1-5 .2-6.4 3.7-4.8 13.5-10 26.7-15 40l-8.4 21-25.6-64.2h-7.1l18.8 46.6m-83-47.7c-4.8 1.3-9.8 2-14.3 4-13.8 6-20.3 17.1-20.3 32 0 14.5 6.4 25.6 19.7 31.2 16.4 7 33.4 7 49.9-.1a31.2 31.2 0 0 0 19.2-28.1c1-13.6-3.3-25-15.3-32.4-11.7-7.4-24.8-7.7-38.9-6.6m-285.6 37.5c1.5-.2 3-.7 4.6-.7h43.8v-6.1h-48.3v-24H474v-5.6h-57.7v69.5h58.6v-5.9H423v-27.2M99.5 574.6l-17-5.2c-.6 7-.6 6.8 6.1 8.8a83 83 0 0 0 33.6 2.5c6.6-.8 13.4-3 19.1-6.3 8.2-4.7 9.1-16.7 1.4-21.9-7-4.7-15.4-7.3-23.4-10.3-7.4-2.7-15.2-4.5-22.8-7-4.4-1.5-8-4.2-7.7-9.7.4-5.3 4.2-7.9 8.7-9a64.2 64.2 0 0 1 44.3 3.6v-7.2c-3.2-.8-6.2-1.7-9.3-2.3A72.2 72.2 0 0 0 93 512c-5.9 2.2-10.3 6-11 12.9-.7 7.2 3.3 11.5 9.2 14.5 2 1.1 4.2 2 6.4 2.7 9.7 2.8 19.5 5.4 29.2 8.1 9 2.6 14.3 7.4 14 12.8-.2 6-5.7 10.9-15.7 11.8-8.2.7-16.6 0-25.7-.2m220.2.5 2.5 4.8h6.6c-.1-.5-.1-.9-.3-1.1-11.5-22.2-23-44.5-34.8-66.5-.7-1.4-3.4-2.3-5.1-2.2a7 7 0 0 0-5 2.7c-10.1 19-20 38.1-30 57.3-1.7 3-3.2 6.3-4.9 9.5 5 1.4 7.7 0 9.4-4.4 1.3-3.6 3.5-6.8 5-10.3 1.2-2.7 3-3.5 5.8-3.4 10 .1 20.1 1 30-.2 11.2-1.4 17.4 2.8 20.8 13.8m-144.8-3.3c4 2.1 8 4.9 12.3 6.3a69.8 69.8 0 0 0 46-1.3c6.6-2.4 6.6-2.4 5.5-9.6a60.5 60.5 0 0 1-45.7 6.6c-10.2-2.2-18.6-7.3-22-18-3.7-12-2.7-23.6 7.2-32.5 9.4-8.5 21.4-10 33.2-8.7 9.4 1 18.6 4.3 27.6 6.5v-5.6c-16-7-32.4-9-49.2-4.6-13.5 3.5-23.3 11.5-26.3 25.6a34 34 0 0 0 11.4 35.3m361.8-61.9c-3.4-.5-2.6 2-2.6 3.9a29023.5 29023.5 0 0 0 0 63.4c0 1 .3 1.9.4 2.6h6v-34h46.4V540h-46.2v-24.1h48.7v-6h-52.7m-106.2-53.4v40h8.6v-93.1h-8.6v53.1m222 123.5h10.7v-6.1H612V510h-5.7v70h46.2m-291 0h38.7v-6.1H349V510h-5.7v70h18.2z"/><path fill="#303030" d="M496.3 953.4c1.5-.4 3.3-.7 5.4-.6-1.5.4-3.3.6-5.4.6zm24.8-1c.4-.4 1-.6 1.7-.6-.4.4-1 .5-1.7.5zm-47.9.8c.4-.3 1-.4 1.8-.3-.4.3-1 .3-1.8.3z"/><path fill="#F6F6F6" d="M81.8 442v-38.9h10.8c17.5.3 35 .1 52.4 1 16.3.9 24.3 11.6 22 27.7a16.1 16.1 0 0 1-10.3 13c-1.4.7-3 1-4.8 1.7 9.5 2.6 18.7 5.2 21.1 16 4.7 21.3-5.2 31.9-23.5 33.1-22.2 1.6-44.6.4-67.7.4v-54m9.6 46.4c18.5-.1 37 0 55.4-.6 7.4-.2 14.6-2.2 17.3-10.8 4-13.1-3.7-24.3-18-25-17.2-.7-34.4-.7-51.5-1-1.3 0-2.6.2-3.8.3 0 12.3 0 24.3.6 37.1m18.1-45.3c9.8 0 19.6.3 29.4-.2 4.7-.3 9.5-1.7 13.7-3.7 5.8-2.7 7.7-8.4 6.4-16.3-.8-4.8-5-8.8-10.6-9.9-3.5-.6-7.2-1.4-10.8-1.5H91V443h18.6z"/><path fill="#050505" d="M504.2 912.4c19.8-8 39.2-5.6 58.4 1 5 1.7 6 5.8 2 9.5a49.5 49.5 0 0 1-32.3 14.4c-6.2.3-12.3 3.5-18.4 5.2-4.6 1.3-9.2 2.5-13.9 3.4-2.7.6-5.2 0-6.2-3.3-.2-.8-2-1.5-3.2-1.5-5.6-.3-10.6-1.2-12.1-8-.2-.6-.8-1.5-1.5-1.8-3.8-2-7.8-3.5-11.5-5.6-2-1.3-3.6-3.3-5.4-5 1.9-1.7 3.6-4.4 5.7-4.9 6.3-1.4 12.8-2.2 19.2-2.7 6.2-.5 12.5-.4 19.2-.7z"/><path fill="#F8F8F8" d="M395 476.5c1.2-8-2.7-13-9-15.3-9.5-3.6-19.4-6.2-29.2-9.2-8.5-2.6-17.2-4.8-25.4-8.2-7.8-3.1-14.1-8.4-14.4-17.9-.2-9 5.3-16.3 15.1-20 15.8-5.8 32-4.8 48.2-2.4 5.5.9 11 2.3 16.5 3.6v9.5c-7.1-2-14-4.6-21.3-6a76.4 76.4 0 0 0-37 1.4c-2.7.9-5.5 2.3-7.8 4-6.4 5-6.7 13.7.3 17.6 7.4 4.1 15.7 6.7 23.7 9.4 11.8 4 23.8 6.8 35.4 11.3 7 2.6 12.8 7.4 14 16 1.2 8-1.5 14.3-7.6 19.1a42.4 42.4 0 0 1-23.6 8.4 139 139 0 0 1-48-3.7c-8.4-2.4-8.7-2.7-7-11.3 8 2.3 16.1 5.2 24.5 6.6 14 2.4 28 2.4 41.8-2.4 5-1.7 9-4.8 10.8-10.5zm321-70.7c19.2-6.5 38.2-4.5 57.2-.4l7 1.8v9.4c-7.2-2.1-14.1-4.8-21.3-6a74.3 74.3 0 0 0-39.3 2.3c-4.7 1.8-8.6 4.4-9.6 9.8-1 5.9.8 10.3 7.4 13 9.2 3.8 18.8 6.2 28.2 9.3 10.4 3.6 21.5 6 31 11.2 16.1 8.7 15.3 27-.7 35.8a61 61 0 0 1-26.8 6.3 125 125 0 0 1-48-6.8v-8.7c8.1 2.2 16.2 5.1 24.5 6.6a84 84 0 0 0 41.9-2.3c6.3-2.2 10.9-6.1 11.3-13 .5-6.6-3.8-11.1-9.6-13-12.2-4.2-24.7-7.4-37-11.2-5.8-1.7-11.7-3.6-17.3-6-8-3.5-14.5-8.8-14.4-18.4 0-10 6-16 15.4-19.7zm150.6 92c-18 1.1-35.6.6-52.7-4.8l-3.7-1.3v-9.5c6.1 2 12 4.8 18.2 6a91 91 0 0 0 48.2-1.1c6.2-2.1 10.9-6 11.3-13 .4-6.7-3.8-11.1-9.6-13-12.2-4.1-24.7-7.3-37-11.2-7.2-2.3-14.4-4.8-21.1-8.2-6.7-3.4-10.8-9-10.4-17.2.4-8.3 4.9-13.6 11.8-17.1a63.4 63.4 0 0 1 28-5.6 134 134 0 0 1 39.7 5.5v9.2c-7.2-2-14.2-4.7-21.4-6a74 74 0 0 0-38.8 2.3c-1.7.6-3.4 1.4-4.8 2.5-7.6 5.5-7.9 14.8.4 19.1 8 4.2 17.1 6.6 25.9 9.5 10.7 3.6 21.9 6.3 32.4 10.5 7.5 3 13.6 8.3 14 17.7a19 19 0 0 1-10.8 19.1c-6 3-12.7 4.5-19.6 6.7z"/><path fill="#F6F6F6" d="M568.8 439v57.3c-5.9 1.7-10-.3-14-4.6-24.3-25-48.9-49.6-73.3-74.4L479 415v81.6h-8.6v-93c5.3-1 9.5-.5 13.8 3.9C508 432 532 456.3 556 480.7c1.1 1.1 2 2.6 3 3.9l1.5-.7c0-12.6 0-25.3.5-38.5l7.8-6.4zm-277.7-20c0 16.3-.3 32.1 0 48a28 28 0 0 1-19.2 26.9 84 84 0 0 1-55.6 0 27.5 27.5 0 0 1-19.3-27.3v-63.2h9v5.2c0 18.5.3 37-.2 55.5-.4 11 4.5 18.2 14.2 22a62 62 0 0 0 50.6-1.3 19 19 0 0 0 11.7-19c-.2-19.5 0-39 0-58.5l.1-3.8h8.7V419z"/><path fill="#F4F4F4" d="M791.5 556.6 773 510.3h7.1l25.6 64.2c3-7.7 5.8-14.3 8.3-21 5.1-13.3 10.3-26.5 15.1-40 1.3-3.5 3.5-3.6 6.4-3.7 3-.1 4.3.9 5.4 3.7 7.2 19.4 14.7 38.7 22.1 58l1.4 2.8L872 555c5.3-13.2 10.9-26.4 15.7-39.8 1.8-4.7 4.1-6.3 9.2-4.9l-13.8 34.4-11 27.7c-3.3 8.2-3.3 8.3-12.7 7.3l-24.5-62.9-24.3 62.8c-.3 0-.6.3-1 .3-8.7.5-8.6.5-11.8-7.7-2-5.1-4-10.2-6.3-15.6z"/><path fill="#F3F3F3" d="M709.1 509.1c13.7-1 26.8-.7 38.5 6.7 12 7.4 16.3 18.8 15.3 32.4-.9 13-7.4 22.8-19.2 28a61.1 61.1 0 0 1-49.9.2c-13.3-5.6-19.7-16.7-19.7-31.2 0-14.9 6.5-26 20.3-32 4.5-2 9.5-2.7 14.7-4m47 33.5c-.4-12.3-6.2-21-17.7-25-14.1-5-28.5-5-42.2 1.1a24.8 24.8 0 0 0-15.1 21.8c-1 11.3 1 21.7 11.4 28.4 11.9 7.6 25.2 7.7 38.4 5.4 17.2-3 25.4-13.3 25.2-31.7z"/><path fill="#FAFAFA" d="M423 547.2V574h52v5.9h-58.6v-69.5H474v5.6h-50.8v24h48.3v6h-43.8c-1.5 0-3 .6-4.7 1.3z"/><path fill="#F3F3F3" d="M99.8 574.7c8.7.1 17.1.8 25.3 0 10-.8 15.5-5.6 15.8-11.7.1-5.4-5-10.2-14.1-12.8-9.7-2.7-19.5-5.3-29.2-8.1a30 30 0 0 1-6.4-2.7c-5.9-3-9.9-7.3-9.2-14.5.7-6.9 5.1-10.7 11-12.9 13-4.7 26.2-4 39.4-1.4 3 .6 6.1 1.5 9.3 2.3v7.2a64.2 64.2 0 0 0-44.3-3.7c-4.5 1.2-8.3 3.8-8.7 9.1-.4 5.5 3.3 8.2 7.7 9.7 7.6 2.5 15.4 4.3 22.8 7 8 3 16.5 5.6 23.4 10.3 7.7 5.2 6.8 17.2-1.4 22a51.4 51.4 0 0 1-19 6.2 83.6 83.6 0 0 1-33.7-2.5c-6.7-2-6.7-1.8-6-8.8a2332.6 2332.6 0 0 0 17.3 5.3zm219.6 0c-3.2-10.6-9.4-14.8-20.6-13.4-9.9 1.2-20 .3-30 .2-2.8 0-4.6.7-5.8 3.4-1.5 3.5-3.7 6.7-5 10.3-1.7 4.4-4.4 5.8-9.4 4.4l4.9-9.5c10-19.2 19.9-38.3 30-57.3a7.3 7.3 0 0 1 5-2.7c1.7-.1 4.4.8 5.1 2.2 11.8 22 23.3 44.3 34.8 66.5.2.2.2.6.3 1H322l-2.7-5m-27.6-53.1-3.2-5.5-20.3 39.1h41c-6-11.3-11.6-22-17.5-33.6zm-117.3 49.8a33.9 33.9 0 0 1-11.1-35c3-14.1 12.8-22 26.3-25.6a73.7 73.7 0 0 1 49.2 4.6v5.6c-9-2.2-18.2-5.5-27.6-6.5-11.8-1.3-23.8.2-33.2 8.7-10 8.9-10.9 20.5-7.1 32.5 3.3 10.7 11.7 15.8 22 18 15.9 3.5 31.2 2 45.6-6.6 1.1 7.2 1.1 7.2-5.6 9.6a69.8 69.8 0 0 1-46 1.3c-4.3-1.4-8.1-4.2-12.5-6.6z"/><path fill="#FAFAFA" d="M537.1 510h52.2v5.9h-48.7v24h46.2v6h-46.4v33.9h-6c-.1-.7-.4-1.7-.4-2.6a29023.5 29023.5 0 0 1 0-63.4c0-1.8-.8-4.4 3.1-3.9z"/><path fill="#F0F0F0" d="M430.4 456v-52.6h8.6v93.1h-8.6V456z"/><path fill="#FFF" d="M609.7 472.5V488h69v8.6h-78.6c0-5.7 0-11.2.4-17.1a74 74 0 0 1 4.5-3.7c1.6-1 3.1-2.2 4.7-3.3z"/><path fill="#FEFEFE" d="M652 580h-45.7v-69.9h5.7V574h51.1v6.1H652zm-291 0h-17.7v-69.9h5.7V574h51.2v6.1H361zm248.7-142c.6 2.1-1.3 5.9 3.9 5.7l4.4 7.4c-2.3.1-4.5.2-7.5 0-4-3.5-7.1-6.8-10.3-10.1v-37.8c4.7 0 9.3 0 14.3.4-.9 2.8-2.2 5.1-3.5 7.5l-1.6 1.6c-6.8 5.2-4.3 12-3.7 18.1.2 2.5 2.6 4.9 4 7.3zm-40.8.5c-2.5 2.5-5 4.5-7.8 6.5-.3-13.8-.3-27.6-.3-41.6h8.2v35.1z"/><path fill="#D9D9D9" d="M600.1 441.4c3.3 2.9 6.5 6.2 10 9.7.1 7 0 13.9-.3 21a47.8 47.8 0 0 1-4.8 3.7c-1.4 1-2.7 2.1-4.4 3.2-.5-12.3-.5-24.7-.5-37.6z"/><path fill="#F3F3F3" d="M618.5 451.3a52.3 52.3 0 0 1-4.5-7.5 93 93 0 0 1 14.5-.2c2.8 4.3 4.2 2.3 5.5-.3 5 0 10 0 15.6.3a47.2 47.2 0 0 1-5.6 7.5l-25.5.2zm-7-40c.8-2.6 2.1-5 3.5-7.6 8.4-.4 16.7-.5 25.6 0 2.4 3.5-.9 5-1.6 7.4-9 0-18 .2-27.5.1z"/><path fill="#FFF" d="M644.4 451.2c1.6-2.4 3.6-4.8 5.6-7.5 8-.3 15.8-.3 24-.3v8c-9.7 0-19.4 0-29.6-.2z"/><path fill="#FEFEFE" d="M661 403.4h17c0 2 0 3.8-.3 6.3l-.7 1.4c-4 .1-8 .2-12.6-.2a95.5 95.5 0 0 1-3.4-7.5z"/><path fill="#D4D4D4" d="M609.8 437.6c-1.5-2-3.9-4.3-4-6.8-.7-6-3.2-12.9 3.5-17.8.5 8 .5 16 .5 24.6z"/><path fill="#FEFEFE" d="M639.4 411.2c.3-2.4 3.6-4 1.6-7.5 3-.4 6-.5 9.5 0a69 69 0 0 1 3.5 7.4c-4.7 0-9.4.2-14.6.1z"/><path fill="#F0F0F0" d="M654.4 411.2a46 46 0 0 1-3.4-7.5c3-.4 6-.5 9.6-.4 1.4 2.4 2.4 4.7 3.4 7.4-3 .5-6 .6-9.6.5z"/><path fill="#D4D4D4" d="M633.6 443.2c-1 2.7-2.3 4.7-4.6.4 1.4-.4 2.8-.5 4.6-.4zm43.8-32c-.3-.4-.2-.7.3-1 .1.2 0 .6-.3 1z"/><path fill="#030303" d="M91 488c-.2-12.4-.2-24.4-.2-36.7 1.2-.1 2.5-.3 3.8-.3 17.1.3 34.3.3 51.4 1 14.4.7 22.1 11.9 18 25-2.6 8.6-9.8 10.6-17.2 10.8-18.4.6-37 .5-55.7.2z"/><path fill="#010101" d="M109 443.1H91v-31.6h46.6c3.6 0 7.3.9 10.8 1.5 5.7 1.1 9.8 5 10.6 10 1.3 7.8-.6 13.5-6.4 16.2-4.2 2-9 3.4-13.7 3.7-9.8.5-19.6.2-29.9.2z"/><path fill="#020202" d="M756.2 543.1c.1 18-8 28.4-25.3 31.3-13.2 2.3-26.5 2.2-38.4-5.4-10.4-6.7-12.4-17-11.4-28.4a25 25 0 0 1 15-21.8c13.8-6 28.2-6.1 42.3-1.2 11.5 4 17.3 12.8 17.8 25.5z"/><path fill="#090909" d="m292 522 17.2 33.3h-41l20.4-39.1a343.8 343.8 0 0 1 3.3 5.8z"/></svg>