<svg version="1.1" id="Layer_1" xmlns="http://www.w3.org/2000/svg" xmlns:xlink="http://www.w3.org/1999/xlink" x="0px" y="0px"
	 width="100%" viewBox="0 0 988 985" enable-background="new 0 0 988 985" xml:space="preserve">
<path fill="#000000" opacity="1.000000" stroke="none" 
	d="
M1.000000,967.000000 
	C1.000000,645.044983 1.000000,323.089935 1.000000,1.067453 
	C330.242371,1.067453 659.484741,1.067453 989.000000,1.067453 
	C989.000000,322.697540 989.000000,644.395142 988.537354,966.546814 
	C659.049805,967.000549 330.024902,967.000305 1.000000,967.000000 
M888.185242,242.266403 
	C848.012634,177.967896 795.352417,126.366783 730.347717,87.408821 
	C660.243530,45.394650 584.075256,23.825907 502.583466,20.877344 
	C476.121490,19.919889 449.764893,21.940813 423.510345,25.630896 
	C389.769287,30.373209 356.917450,38.554413 325.094574,50.610176 
	C247.864639,79.867920 182.310974,125.813042 129.354721,189.299362 
	C62.372383,269.600769 26.208910,362.310028 20.152033,466.509949 
	C17.755392,507.740692 21.008772,548.753052 29.768999,589.336426 
	C46.734535,667.932251 81.413475,737.622559 133.609100,798.593262 
	C169.355621,840.349365 211.363785,874.598389 259.321960,901.548096 
	C320.935822,936.171570 387.056274,955.794800 457.456787,960.841003 
	C494.756134,963.514587 531.899719,961.383728 568.788391,955.107788 
	C602.929993,949.299194 636.077881,939.931030 668.022339,926.604675 
	C753.012390,891.148987 822.513367,836.064209 875.019104,760.350647 
	C929.868896,681.256775 958.189270,593.425781 959.359924,496.921326 
	C959.813904,459.490479 956.151672,422.562042 947.781006,386.163116 
	C936.049011,335.147644 916.330933,287.326141 888.185242,242.266403 
z"/>
<path fill="#FFFFFF" opacity="1.000000" stroke="none" 
	d="
M1.000000,967.462708 
	C330.024902,967.000305 659.049805,967.000549 988.537354,967.000427 
	C989.000000,973.330688 989.000000,979.661438 989.000000,985.958984 
	C659.666687,985.958984 330.333344,985.958984 1.000000,985.958984 
	C1.000000,979.920471 1.000000,973.922913 1.000000,967.462708 
z"/>
<path fill="#F7F7F7" opacity="1.000000" stroke="none" 
	d="
M888.393677,242.565659 
	C916.330933,287.326141 936.049011,335.147644 947.781006,386.163116 
	C956.151672,422.562042 959.813904,459.490479 959.359924,496.921326 
	C958.189270,593.425781 929.868896,681.256775 875.019104,760.350647 
	C822.513367,836.064209 753.012390,891.148987 668.022339,926.604675 
	C636.077881,939.931030 602.929993,949.299194 568.788391,955.107788 
	C531.899719,961.383728 494.756134,963.514587 457.456787,960.841003 
	C387.056274,955.794800 320.935822,936.171570 259.321960,901.548096 
	C211.363785,874.598389 169.355621,840.349365 133.609100,798.593262 
	C81.413475,737.622559 46.734535,667.932251 29.768999,589.336426 
	C21.008772,548.753052 17.755392,507.740692 20.152033,466.509949 
	C26.208910,362.310028 62.372383,269.600769 129.354721,189.299362 
	C182.310974,125.813042 247.864639,79.867920 325.094574,50.610176 
	C356.917450,38.554413 389.769287,30.373209 423.510345,25.630896 
	C449.764893,21.940813 476.121490,19.919889 502.583466,20.877344 
	C584.075256,23.825907 660.243530,45.394650 730.347717,87.408821 
	C795.352417,126.366783 848.012634,177.967896 888.393677,242.565659 
M476.013184,953.378052 
	C482.660187,953.322388 489.307190,953.266724 496.569611,953.526367 
	C498.380524,953.353943 500.191406,953.181519 502.928589,953.097107 
	C508.940216,952.787048 514.951843,952.476990 521.311401,952.462341 
	C521.875732,952.314148 522.440125,952.165955 523.925659,952.076416 
	C537.299805,950.687805 550.823730,950.128723 564.018494,947.746338 
	C596.510803,941.879700 628.309082,933.421326 659.108093,921.171021 
	C716.862793,898.199280 768.068054,865.173462 812.409302,821.760071 
	C849.877441,785.075928 880.288757,743.117554 903.492310,695.974792 
	C931.586670,638.895447 947.582275,578.606934 950.724976,515.139343 
	C952.961121,469.979828 949.020203,425.230438 937.997681,381.220398 
	C921.063232,313.605316 890.731445,252.727188 846.558777,198.792435 
	C816.914673,162.596939 782.609009,131.471863 743.595764,105.677269 
	C692.137390,71.654343 636.023865,48.870415 575.387024,37.377617 
	C546.606750,31.922773 517.558655,28.883982 488.252472,29.139080 
	C476.134827,29.244562 463.958588,29.744215 451.928040,31.111729 
	C432.517181,33.318157 412.975647,35.300396 393.894928,39.308338 
	C342.288910,50.148262 293.771759,69.347855 248.858856,97.066490 
	C180.698135,139.132858 126.587029,194.914825 87.215714,264.785614 
	C51.664131,327.877625 32.117256,395.729431 28.374514,467.953522 
	C26.903257,496.344513 27.823776,524.781677 31.842310,553.072021 
	C35.827236,581.125793 41.919289,608.632568 50.852718,635.513489 
	C80.321960,724.187439 131.821869,797.461609 205.069336,855.380127 
	C247.516037,888.943665 294.675323,913.841675 346.104004,930.693237 
	C387.343323,944.206055 429.595642,951.853821 473.479736,953.306396 
	C474.028259,953.249084 474.576782,953.191772 476.013184,953.378052 
z"/>
<path fill="#010101" opacity="1.000000" stroke="none" 
	d="
M472.999786,953.001221 
	C429.595642,951.853821 387.343323,944.206055 346.104004,930.693237 
	C294.675323,913.841675 247.516037,888.943665 205.069336,855.380127 
	C131.821869,797.461609 80.321960,724.187439 50.852718,635.513489 
	C41.919289,608.632568 35.827236,581.125793 31.842310,553.072021 
	C27.823776,524.781677 26.903257,496.344513 28.374514,467.953522 
	C32.117256,395.729431 51.664131,327.877625 87.215714,264.785614 
	C126.587029,194.914825 180.698135,139.132858 248.858856,97.066490 
	C293.771759,69.347855 342.288910,50.148262 393.894928,39.308338 
	C412.975647,35.300396 432.517181,33.318157 451.928040,31.111729 
	C463.958588,29.744215 476.134827,29.244562 488.252472,29.139080 
	C517.558655,28.883982 546.606750,31.922773 575.387024,37.377617 
	C636.023865,48.870415 692.137390,71.654343 743.595764,105.677269 
	C782.609009,131.471863 816.914673,162.596939 846.558777,198.792435 
	C890.731445,252.727188 921.063232,313.605316 937.997681,381.220398 
	C949.020203,425.230438 952.961121,469.979828 950.724976,515.139343 
	C947.582275,578.606934 931.586670,638.895447 903.492310,695.974792 
	C880.288757,743.117554 849.877441,785.075928 812.409302,821.760071 
	C768.068054,865.173462 716.862793,898.199280 659.108093,921.171021 
	C628.309082,933.421326 596.510803,941.879700 564.018494,947.746338 
	C550.823730,950.128723 537.299805,950.687805 523.301270,951.836304 
	C522.105774,951.786499 521.534607,951.976746 520.963440,952.166992 
	C514.951843,952.476990 508.940216,952.787048 502.201660,952.794800 
	C499.634583,952.732056 497.794373,952.971558 495.954193,953.211060 
	C489.307190,953.266724 482.660187,953.322388 475.461243,953.049744 
	C474.272797,952.814697 473.636292,952.907959 472.999786,953.001221 
M650.086792,403.189941 
	C647.062256,403.248962 644.037781,403.307983 640.094910,403.161102 
	C631.723022,403.229370 623.351074,403.297638 614.065125,403.183075 
	C609.499939,403.183075 604.934753,403.183075 600.216919,403.183075 
	C600.216919,416.213989 600.216919,428.587616 600.017944,441.884827 
	C600.082642,454.269958 600.147278,466.655090 600.085388,479.963531 
	C600.085388,485.409668 600.085388,490.855804 600.085388,496.566284 
	C626.564514,496.566284 652.587097,496.566284 678.752258,496.566284 
	C678.752258,493.735748 678.752258,491.161774 678.752258,488.036469 
	C655.662720,488.036469 632.811035,488.036469 609.698975,488.036469 
	C609.698975,482.498505 609.698975,477.515228 609.923767,471.815491 
	C610.081116,464.958618 610.238464,458.101776 611.225464,451.387695 
	C613.486694,451.297760 615.747986,451.207794 618.911865,451.387329 
	C627.271423,451.294830 635.631042,451.202362 644.902222,451.352081 
	C654.577759,451.352081 664.253296,451.352081 673.962219,451.352081 
	C673.962219,448.306122 673.962219,445.912994 673.962219,443.402191 
	C665.832214,443.402191 657.924133,443.402191 649.103394,443.185028 
	C644.082947,443.220856 639.062500,443.256683 633.212097,443.080811 
	C631.793457,443.150024 630.374878,443.219238 628.038879,443.145966 
	C623.351074,443.237793 618.663208,443.329590 613.122070,443.230225 
	C608.434875,443.864685 610.296265,440.136505 609.910339,437.140930 
	C609.833435,429.072968 609.756531,421.005005 609.871704,412.370697 
	C610.256287,411.936646 610.640930,411.502563 611.921509,411.355225 
	C620.944824,411.274353 629.968079,411.193481 639.897339,411.357391 
	C644.601318,411.270782 649.305237,411.184174 654.882263,411.370605 
	C657.919189,411.274658 660.956055,411.178680 664.891174,411.337891 
	C668.940857,411.274597 672.990601,411.211273 677.672302,411.160187 
	C677.739380,410.768982 677.806396,410.377808 677.987061,409.105652 
	C677.987061,407.212952 677.987061,405.320221 677.987061,403.364502 
	C671.862976,403.364502 666.444031,403.364502 660.131592,403.155762 
	C657.078674,403.232483 654.025818,403.309174 650.086792,403.189941 
M569.020569,438.072662 
	C569.020569,426.478607 569.020569,414.884552 569.020569,403.418030 
	C565.883728,403.418030 563.445618,403.418030 560.805725,403.418030 
	C560.805725,417.445465 560.805725,431.222321 560.500122,445.887543 
	C560.500122,458.572052 560.500122,471.256531 560.500122,483.941040 
	C560.002747,484.159088 559.505310,484.377136 559.007935,484.595184 
	C558.006714,483.281433 557.133606,481.841858 555.985474,480.672363 
	C532.056824,456.300049 507.967285,432.083405 484.263397,407.494873 
	C480.020691,403.093781 475.818542,402.614929 470.512207,403.507233 
	C470.512207,434.696136 470.512207,465.583984 470.512207,496.609375 
	C473.458374,496.609375 476.035675,496.609375 479.106689,496.609375 
	C479.106689,469.512634 479.106689,442.657501 479.106689,415.004822 
	C480.337128,416.180145 480.920776,416.709320 481.473145,417.269287 
	C505.927490,442.060852 530.481201,466.756042 554.732422,491.744751 
	C558.868591,496.006683 562.904419,498.025146 568.846802,496.327545 
	C568.846802,477.233948 568.846802,458.114532 569.020569,438.072662 
M81.843193,442.499939 
	C81.843193,460.562195 81.843193,478.624451 81.843193,495.993011 
	C104.923981,495.993011 127.292664,497.161469 149.474823,495.629395 
	C167.763977,494.366211 177.677536,483.830841 173.002304,462.567017 
	C170.613998,451.704559 161.425415,449.069794 151.859283,446.526855 
	C153.704132,445.884918 155.261993,445.468475 156.713516,444.815613 
	C162.385208,442.264557 166.116913,438.136230 167.023178,431.789185 
	C169.326080,415.660919 161.323776,404.975922 145.031403,404.123657 
	C127.592545,403.211395 110.094940,403.415802 92.622665,403.153992 
	C89.172676,403.102295 85.721245,403.146576 81.843178,403.146576 
	C81.843178,416.262207 81.843178,428.881073 81.843193,442.499939 
M503.796997,912.573975 
	C497.529388,912.727722 491.239441,912.605774 485.000397,913.111694 
	C478.572357,913.632935 472.115540,914.416016 465.836609,915.822571 
	C463.656647,916.310913 461.971283,919.007202 460.059998,920.695068 
	C461.862122,922.378174 463.438690,924.448181 465.516022,925.659302 
	C469.193848,927.803528 473.199097,929.380188 477.009155,931.309265 
	C477.669983,931.643799 478.347137,932.477844 478.503967,933.193542 
	C479.968140,939.874939 485.040771,940.758118 490.640228,941.067383 
	C491.767487,941.129700 493.601501,941.792603 493.823090,942.553284 
	C494.817108,945.965637 497.256348,946.506470 500.039093,945.944336 
	C504.684082,945.006042 509.290619,943.831299 513.853638,942.544250 
	C520.030823,940.802002 526.081482,937.615051 532.311462,937.263367 
	C545.158752,936.537964 555.550537,931.428772 564.610229,922.854431 
	C568.516174,919.157776 567.640564,915.097290 562.581360,913.369446 
	C543.364746,906.806580 524.045898,904.432617 503.796997,912.573975 
M394.981537,476.881470 
	C393.198456,482.195435 389.258240,485.284271 384.188019,487.042206 
	C370.488098,491.792236 356.386017,491.793091 342.371552,489.410522 
	C334.049927,487.995758 325.984558,485.073334 317.841003,482.838928 
	C316.171204,491.447845 316.461029,491.717133 324.994354,494.079529 
	C340.745453,498.440063 356.807709,499.068909 372.927521,497.825439 
	C381.369019,497.174225 389.600586,494.867706 396.465546,489.447784 
	C402.643372,484.570435 405.330841,478.277771 404.172180,470.240875 
	C402.938660,461.684875 397.036530,456.918701 390.063568,454.250458 
	C378.540100,449.841003 366.457916,446.916138 354.740601,442.980347 
	C346.668152,440.268860 338.360962,437.717834 330.993805,433.600647 
	C324.029114,429.708344 324.308899,421.064575 330.699066,416.051483 
	C332.977112,414.264374 335.774323,412.874847 338.555511,412.038910 
	C350.717255,408.383514 363.157593,408.196869 375.510284,410.598328 
	C382.712402,411.998474 389.694702,414.529449 396.814270,416.562622 
	C396.814270,413.638000 396.814270,410.501129 396.814270,407.056854 
	C391.255157,405.847290 385.827026,404.355316 380.299561,403.522156 
	C364.102173,401.080750 347.920197,400.124481 332.126556,405.951752 
	C322.302155,409.576630 316.752563,416.886871 317.020416,425.902374 
	C317.303711,435.438324 323.630463,440.650696 331.403259,443.826263 
	C339.614990,447.181091 348.305176,449.372101 356.803589,452.015991 
	C366.551483,455.048706 376.486969,457.574249 386.017395,461.176239 
	C392.329468,463.561829 396.209686,468.559479 394.981537,476.881470 
M715.538269,405.969147 
	C706.541565,409.405090 700.574097,415.483795 700.507446,425.475677 
	C700.443542,435.081146 706.947815,440.415161 714.927307,443.904510 
	C720.495544,446.339386 726.353394,448.166168 732.179016,449.946594 
	C744.485474,453.707642 756.960083,456.948456 769.154053,461.034332 
	C774.961487,462.980225 779.254517,467.527496 778.816956,474.153076 
	C778.367859,480.952820 773.796753,484.943329 767.473389,487.101166 
	C753.733093,491.790131 739.653259,491.770905 725.641479,489.368835 
	C717.317383,487.941864 709.248535,485.026215 701.103760,482.790527 
	C701.103760,485.280823 701.103760,488.425659 701.103760,491.518433 
	C711.637146,496.229401 733.941956,499.169067 749.124878,498.298767 
	C758.472107,497.762939 767.569641,496.637024 775.921509,492.022369 
	C791.876770,483.206696 792.711426,464.853027 776.653442,456.216858 
	C767.071167,451.063416 756.043884,448.562500 745.608521,445.039856 
	C736.233765,441.875183 726.562622,439.474640 717.434387,435.731750 
	C710.809814,433.015472 708.945312,428.558167 710.008179,422.681915 
	C710.976379,417.328705 714.936951,414.656372 719.605774,412.920746 
	C732.442749,408.148438 745.703735,408.238464 758.893127,410.539307 
	C766.072693,411.791748 773.004028,414.467346 780.264099,416.563629 
	C780.264099,415.147797 780.264099,413.676849 780.264099,412.205902 
	C780.264099,410.579071 780.264099,408.952209 780.264099,407.239197 
	C777.701355,406.564392 775.492493,405.888092 773.242126,405.405121 
	C754.234070,401.326111 735.230286,399.289551 715.538269,405.969147 
M867.092651,497.816284 
	C873.478455,495.670166 880.193726,494.185638 886.166931,491.210999 
	C893.678406,487.470337 897.496216,480.870697 897.059265,472.085022 
	C896.594604,462.741119 890.513794,457.389313 883.005554,454.378693 
	C872.486267,450.160675 861.346191,447.514465 850.558105,443.935425 
	C841.818481,441.036011 832.757507,438.614166 824.662537,434.399139 
	C816.412292,430.103241 816.699341,420.844543 824.273132,415.273193 
	C825.713318,414.213776 827.409912,413.408264 829.101135,412.799561 
	C841.801697,408.228638 854.880066,408.202942 867.905701,410.546967 
	C875.110901,411.843567 882.079285,414.456024 889.341980,416.528839 
	C889.341980,413.641327 889.341980,410.558685 889.341980,407.254578 
	C876.316284,403.583252 863.170898,401.448822 849.597961,401.766876 
	C839.872131,401.994690 830.333191,402.903015 821.570435,407.374268 
	C814.699768,410.880188 810.173096,416.186890 809.778748,424.462585 
	C809.387146,432.680847 813.477661,438.315613 820.190735,441.691345 
	C826.924988,445.077759 834.148743,447.614777 841.352173,449.916382 
	C853.603027,453.830688 866.108826,456.961792 878.300476,461.040741 
	C884.098145,462.980438 888.301086,467.387726 887.907410,474.136230 
	C887.498108,481.152069 882.829346,484.998047 876.570496,487.101807 
	C860.641541,492.455963 844.464905,491.588501 828.380249,488.274353 
	C822.190247,486.998901 816.299011,484.273499 810.163025,482.171539 
	C810.163025,485.298767 810.163025,488.434967 810.163025,491.702972 
	C811.478638,492.151062 812.705444,492.591583 813.946350,492.988190 
	C831.005554,498.440216 848.536194,498.898438 867.092651,497.816284 
M291.099701,418.503937 
	C291.099701,413.413635 291.099701,408.323334 291.099701,403.522522 
	C287.744415,403.522522 285.171936,403.522522 282.448944,403.522522 
	C282.373138,405.048767 282.267395,406.192139 282.266846,407.335571 
	C282.257263,426.818726 282.091797,446.303986 282.336060,465.784088 
	C282.449707,474.846985 278.484558,481.137054 270.623474,484.842285 
	C253.995041,492.679932 236.938431,492.577057 220.008850,486.026001 
	C210.272522,482.258423 205.446198,475.139069 205.770660,464.059967 
	C206.311523,445.591766 205.918747,427.096252 205.919052,408.612213 
	C205.919083,406.867249 205.919037,405.122253 205.919037,403.437378 
	C202.498413,403.437378 199.910889,403.437378 196.992264,403.437378 
	C196.992264,424.684479 196.940826,445.637390 197.011154,466.589844 
	C197.054810,479.594849 203.958160,489.679657 216.324112,493.890289 
	C234.797577,500.180573 253.498779,500.202759 271.948608,493.857025 
	C281.829132,490.458679 291.412659,480.734711 291.137573,466.958649 
	C290.821838,451.145874 291.086884,435.321533 291.099701,418.503937 
M791.713867,556.940002 
	C793.753052,562.017517 795.857971,567.069885 797.816406,572.178345 
	C800.955200,580.365479 800.914368,580.384888 809.692993,579.919922 
	C809.998413,579.903809 810.292114,579.665894 810.551575,579.549194 
	C818.502014,559.070496 826.440002,538.623901 834.908691,516.810364 
	C843.451782,538.754089 851.425049,559.234192 859.386719,579.684387 
	C868.836487,580.658264 868.804688,580.645691 872.047241,572.446350 
	C875.706787,563.192627 879.429321,553.963867 883.127747,544.725586 
	C887.717651,533.260437 892.310852,521.796692 896.915710,510.299469 
	C891.822327,508.939606 889.456726,510.517822 887.736267,515.237427 
	C882.854065,528.630981 877.333313,541.792114 872.041382,555.035706 
	C869.592468,561.164307 867.090759,567.271729 864.261230,574.257263 
	C863.478943,572.613159 863.167358,572.056885 862.940918,571.467834 
	C855.516968,552.155457 848.030823,532.866333 840.761414,513.495850 
	C839.699402,510.665802 838.365051,509.687042 835.398621,509.814087 
	C832.453247,509.940216 830.311523,509.979950 829.039551,513.530090 
	C824.230652,526.952393 819.032837,540.236084 813.921692,553.549011 
	C811.365356,560.207581 808.681824,566.817261 805.629089,574.526855 
	C796.729736,552.209961 788.333191,531.153870 780.002502,510.262848 
	C777.510132,510.262848 775.319092,510.262848 772.890442,510.262848 
	C779.159424,525.854736 785.268250,541.048523 791.713867,556.940002 
M708.699524,509.155426 
	C703.911865,510.478027 698.884888,511.254028 694.381165,513.225342 
	C680.597534,519.258423 674.113464,530.328491 674.096619,545.166748 
	C674.080200,559.653931 680.514465,570.799988 693.816711,576.431885 
	C710.193665,583.365540 727.241333,583.484558 743.657532,576.258545 
	C755.543579,571.026611 762.011841,561.266418 762.925720,548.191956 
	C763.876892,534.583740 759.558655,523.248657 747.627930,515.770691 
	C735.908447,508.425232 722.829102,508.084808 708.699524,509.155426 
M423.069885,546.731873 
	C424.627899,546.467346 426.184296,545.985352 427.744202,545.973755 
	C437.400299,545.901917 447.057220,545.935669 456.713867,545.934692 
	C461.650085,545.934204 466.586304,545.934631 471.492615,545.934631 
	C471.492615,543.601013 471.492615,541.895325 471.492615,539.869812 
	C455.221405,539.869812 439.298706,539.869812 423.221619,539.869812 
	C423.221619,531.802917 423.221619,524.065430 423.221619,515.869873 
	C440.318054,515.869873 457.213745,515.869873 474.022522,515.869873 
	C474.022522,513.660645 474.022522,511.919037 474.022522,510.260681 
	C454.539856,510.260681 435.337250,510.260681 416.279419,510.260681 
	C416.279419,533.663940 416.279419,556.725159 416.279419,579.772949 
	C435.977631,579.772949 455.387421,579.772949 474.855316,579.772949 
	C474.855316,577.793640 474.855316,576.056274 474.855316,573.931824 
	C457.554474,573.931824 440.483307,573.931824 423.020386,573.931824 
	C423.020386,564.931519 423.020386,556.316467 423.069885,546.731873 
M99.371223,574.600525 
	C93.716858,572.867249 88.062485,571.133972 82.438606,569.410034 
	C81.760658,576.352478 81.799149,576.220764 88.509331,578.181763 
	C99.558838,581.411011 110.909164,582.059082 122.141434,580.708313 
	C128.690643,579.920776 135.511322,577.730957 141.214844,574.445007 
	C149.375946,569.743164 150.313385,557.699158 142.632553,552.510010 
	C135.672684,547.808044 127.228111,545.153442 119.213692,542.206543 
	C111.771049,539.469910 103.968925,537.725891 96.447174,535.183594 
	C92.017944,533.686523 88.328667,531.024170 88.727379,525.505188 
	C89.112457,520.174927 92.874451,517.619202 97.388138,516.442383 
	C101.863770,515.275574 106.526009,514.595459 111.146881,514.260803 
	C121.710739,513.495911 131.828598,515.775635 141.690857,520.061218 
	C141.690857,517.381653 141.690857,515.254333 141.690857,512.897644 
	C138.512924,512.113403 135.478363,511.224030 132.387421,510.626160 
	C119.162201,508.067841 105.937515,507.288574 93.013802,512.028259 
	C87.113380,514.192200 82.673218,518.009460 82.013229,524.869629 
	C81.319580,532.079773 85.316101,536.377014 91.161194,539.433472 
	C93.208488,540.504028 95.365051,541.464661 97.579575,542.099121 
	C107.288620,544.880493 117.051056,547.475037 126.767365,550.231628 
	C135.866745,552.813293 141.049576,557.574158 140.852600,562.974060 
	C140.629639,569.086548 135.077927,573.860229 125.128510,574.753174 
	C116.898277,575.491821 108.541031,574.815308 99.371223,574.600525 
M319.615021,575.059692 
	C320.445374,576.672974 321.275757,578.286194 322.092255,579.872498 
	C324.380981,579.872498 326.507477,579.872498 328.673370,579.872498 
	C328.573090,579.396362 328.574066,579.042358 328.429260,578.764160 
	C316.876831,556.566650 305.368195,534.345703 293.612671,512.256042 
	C292.908875,510.933563 290.187897,509.998871 288.472290,510.093506 
	C286.760437,510.187897 284.352295,511.386902 283.585785,512.817627 
	C273.404388,531.821777 263.452545,550.949036 253.459579,570.053955 
	C251.818558,573.191284 250.254837,576.369019 248.619507,579.598938 
	C253.586105,581.014771 256.328461,579.597778 257.969543,575.197205 
	C259.296295,571.639526 261.535095,568.432007 263.048706,564.930603 
	C264.224152,562.211426 265.966583,561.432983 268.840546,561.481262 
	C278.828888,561.649048 288.940094,562.505554 298.781799,561.292664 
	C310.004486,559.909729 316.227081,564.090454 319.615021,575.059692 
M174.767746,571.761780 
	C178.853806,573.912598 182.738953,576.667542 187.062134,578.105469 
	C202.472061,583.231201 217.843857,582.009338 233.024704,576.752258 
	C239.704559,574.439026 239.703537,574.436096 238.553360,567.172852 
	C224.242096,575.753479 208.867798,577.319275 192.921692,573.842163 
	C182.680573,571.608887 174.261414,566.509277 170.950577,555.840942 
	C167.198639,543.751282 168.155869,532.183472 178.079529,523.260925 
	C187.472702,514.815308 199.472321,513.284241 211.334290,514.602112 
	C220.714996,515.644348 229.850143,518.896667 238.946198,521.131104 
	C238.946198,520.106018 238.946198,517.814209 238.946198,515.485535 
	C222.941849,508.532562 206.547623,506.479614 189.701004,510.892822 
	C176.226273,514.422729 166.358185,522.402588 163.394028,536.540466 
	C160.597992,549.876465 163.391861,561.961609 174.767746,571.761780 
M536.647888,509.925049 
	C533.171570,509.421112 534.010864,511.963837 534.008728,513.774597 
	C533.983887,534.916748 533.987183,556.058960 534.008545,577.201111 
	C534.009460,578.125977 534.255737,579.050537 534.361206,579.789734 
	C536.452026,579.789734 538.237183,579.789734 540.382507,579.789734 
	C540.382507,568.496399 540.382507,557.413940 540.382507,545.813477 
	C556.122620,545.813477 571.507568,545.813477 586.848328,545.813477 
	C586.848328,543.660645 586.848328,542.039429 586.848328,539.952393 
	C571.303589,539.952393 555.907776,539.952393 540.587463,539.952393 
	C540.587463,531.740356 540.587463,523.999268 540.587463,515.870239 
	C556.942627,515.870239 573.018616,515.870239 589.255615,515.870239 
	C589.255615,513.734863 589.255615,512.000854 589.255615,509.923004 
	C571.865295,509.923004 554.746033,509.923004 536.647888,509.925049 
M430.394043,456.499756 
	C430.394043,469.887939 430.394043,483.276123 430.394043,496.530334 
	C433.873199,496.530334 436.433441,496.530334 438.989441,496.530334 
	C438.989441,465.266663 438.989441,434.347076 438.989441,403.386597 
	C436.129944,403.386597 433.536377,403.386597 430.394073,403.386597 
	C430.394073,420.935669 430.394073,438.217712 430.394043,456.499756 
M652.485779,579.996460 
	C656.059631,579.996460 659.633484,579.996460 663.136414,579.996460 
	C663.136414,577.667786 663.136414,576.044556 663.136414,573.864746 
	C646.122375,573.864746 629.256042,573.864746 611.995117,573.864746 
	C611.995117,552.257141 611.995117,531.205933 611.995117,510.133850 
	C609.821411,510.133850 608.062683,510.133850 606.259277,510.133850 
	C606.259277,533.505310 606.259277,556.676270 606.259277,579.996521 
	C621.556396,579.996521 636.522034,579.996521 652.485779,579.996460 
M361.500549,580.000000 
	C374.399963,580.000000 387.299408,580.000000 400.158844,580.000000 
	C400.158844,577.697449 400.158844,576.069885 400.158844,573.894897 
	C383.147125,573.894897 366.279602,573.894897 349.024475,573.894897 
	C349.024475,552.295105 349.024475,531.241333 349.024475,510.121857 
	C346.864258,510.121857 345.109924,510.121857 343.251740,510.121857 
	C343.251740,533.481995 343.251740,556.653198 343.251740,580.000061 
	C349.216400,580.000061 354.858795,580.000061 361.500549,580.000000 
z"/>
<path fill="#303030" opacity="1.000000" stroke="none" 
	d="
M496.261902,953.368713 
	C497.794373,952.971558 499.634583,952.732056 501.738525,952.750793 
	C500.191406,953.181519 498.380524,953.353943 496.261902,953.368713 
z"/>
<path fill="#303030" opacity="1.000000" stroke="none" 
	d="
M521.137451,952.314697 
	C521.534607,951.976746 522.105774,951.786499 522.840698,951.807007 
	C522.440125,952.165955 521.875732,952.314148 521.137451,952.314697 
z"/>
<path fill="#303030" opacity="1.000000" stroke="none" 
	d="
M473.239746,953.153809 
	C473.636292,952.907959 474.272797,952.814697 475.017334,952.927979 
	C474.576782,953.191772 474.028259,953.249084 473.239746,953.153809 
z"/>
<path fill="#F6F6F6" opacity="1.000000" stroke="none" 
	d="
M81.843185,441.999939 
	C81.843178,428.881073 81.843178,416.262207 81.843178,403.146576 
	C85.721245,403.146576 89.172676,403.102295 92.622665,403.153992 
	C110.094940,403.415802 127.592545,403.211395 145.031403,404.123657 
	C161.323776,404.975922 169.326080,415.660919 167.023178,431.789185 
	C166.116913,438.136230 162.385208,442.264557 156.713516,444.815613 
	C155.261993,445.468475 153.704132,445.884918 151.859283,446.526855 
	C161.425415,449.069794 170.613998,451.704559 173.002304,462.567017 
	C177.677536,483.830841 167.763977,494.366211 149.474823,495.629395 
	C127.292664,497.161469 104.923981,495.993011 81.843193,495.993011 
	C81.843193,478.624451 81.843193,460.562195 81.843185,441.999939 
M91.392960,488.418396 
	C109.871422,488.272400 128.359467,488.425232 146.823624,487.833191 
	C154.198273,487.596741 161.423691,485.595764 164.059067,477.022552 
	C168.106964,463.854248 160.409470,452.724762 146.006729,452.081024 
	C128.889984,451.315948 111.738434,451.325348 94.601509,451.025513 
	C93.326408,451.003174 92.047607,451.193024 90.788277,451.282990 
	C90.788277,463.620972 90.788277,475.608643 91.392960,488.418396 
M109.500305,443.147766 
	C119.313652,443.109619 129.149216,443.447266 138.930618,442.868866 
	C143.562180,442.595032 148.366959,441.163605 152.597931,439.193115 
	C158.434341,436.474915 160.254990,430.785370 158.966431,422.943481 
	C158.166656,418.076263 154.071121,414.114960 148.436081,413.048370 
	C144.862411,412.371979 141.237213,411.584991 137.627747,411.546967 
	C122.047684,411.382782 106.464897,411.476715 90.911652,411.476715 
	C90.911652,421.950531 90.911652,432.354065 90.911652,443.147766 
	C96.929459,443.147766 102.715080,443.147766 109.500305,443.147766 
z"/>
<path fill="#050505" opacity="1.000000" stroke="none" 
	d="
M504.170563,912.417236 
	C524.045898,904.432617 543.364746,906.806580 562.581360,913.369446 
	C567.640564,915.097290 568.516174,919.157776 564.610229,922.854431 
	C555.550537,931.428772 545.158752,936.537964 532.311462,937.263367 
	C526.081482,937.615051 520.030823,940.802002 513.853638,942.544250 
	C509.290619,943.831299 504.684082,945.006042 500.039093,945.944336 
	C497.256348,946.506470 494.817108,945.965637 493.823090,942.553284 
	C493.601501,941.792603 491.767487,941.129700 490.640228,941.067383 
	C485.040771,940.758118 479.968140,939.874939 478.503967,933.193542 
	C478.347137,932.477844 477.669983,931.643799 477.009155,931.309265 
	C473.199097,929.380188 469.193848,927.803528 465.516022,925.659302 
	C463.438690,924.448181 461.862122,922.378174 460.059998,920.695068 
	C461.971283,919.007202 463.656647,916.310913 465.836609,915.822571 
	C472.115540,914.416016 478.572357,913.632935 485.000397,913.111694 
	C491.239441,912.605774 497.529388,912.727722 504.170563,912.417236 
z"/>
<path fill="#F8F8F8" opacity="1.000000" stroke="none" 
	d="
M394.995880,476.467224 
	C396.209686,468.559479 392.329468,463.561829 386.017395,461.176239 
	C376.486969,457.574249 366.551483,455.048706 356.803589,452.015991 
	C348.305176,449.372101 339.614990,447.181091 331.403259,443.826263 
	C323.630463,440.650696 317.303711,435.438324 317.020416,425.902374 
	C316.752563,416.886871 322.302155,409.576630 332.126556,405.951752 
	C347.920197,400.124481 364.102173,401.080750 380.299561,403.522156 
	C385.827026,404.355316 391.255157,405.847290 396.814270,407.056854 
	C396.814270,410.501129 396.814270,413.638000 396.814270,416.562622 
	C389.694702,414.529449 382.712402,411.998474 375.510284,410.598328 
	C363.157593,408.196869 350.717255,408.383514 338.555511,412.038910 
	C335.774323,412.874847 332.977112,414.264374 330.699066,416.051483 
	C324.308899,421.064575 324.029114,429.708344 330.993805,433.600647 
	C338.360962,437.717834 346.668152,440.268860 354.740601,442.980347 
	C366.457916,446.916138 378.540100,449.841003 390.063568,454.250458 
	C397.036530,456.918701 402.938660,461.684875 404.172180,470.240875 
	C405.330841,478.277771 402.643372,484.570435 396.465546,489.447784 
	C389.600586,494.867706 381.369019,497.174225 372.927521,497.825439 
	C356.807709,499.068909 340.745453,498.440063 324.994354,494.079529 
	C316.461029,491.717133 316.171204,491.447845 317.841003,482.838928 
	C325.984558,485.073334 334.049927,487.995758 342.371552,489.410522 
	C356.386017,491.793091 370.488098,491.792236 384.188019,487.042206 
	C389.258240,485.284271 393.198456,482.195435 394.995880,476.467224 
z"/>
<path fill="#F8F8F8" opacity="1.000000" stroke="none" 
	d="
M715.908447,405.847504 
	C735.230286,399.289551 754.234070,401.326111 773.242126,405.405121 
	C775.492493,405.888092 777.701355,406.564392 780.264099,407.239197 
	C780.264099,408.952209 780.264099,410.579071 780.264099,412.205902 
	C780.264099,413.676849 780.264099,415.147797 780.264099,416.563629 
	C773.004028,414.467346 766.072693,411.791748 758.893127,410.539307 
	C745.703735,408.238464 732.442749,408.148438 719.605774,412.920746 
	C714.936951,414.656372 710.976379,417.328705 710.008179,422.681915 
	C708.945312,428.558167 710.809814,433.015472 717.434387,435.731750 
	C726.562622,439.474640 736.233765,441.875183 745.608521,445.039856 
	C756.043884,448.562500 767.071167,451.063416 776.653442,456.216858 
	C792.711426,464.853027 791.876770,483.206696 775.921509,492.022369 
	C767.569641,496.637024 758.472107,497.762939 749.124878,498.298767 
	C733.941956,499.169067 711.637146,496.229401 701.103760,491.518433 
	C701.103760,488.425659 701.103760,485.280823 701.103760,482.790527 
	C709.248535,485.026215 717.317383,487.941864 725.641479,489.368835 
	C739.653259,491.770905 753.733093,491.790131 767.473389,487.101166 
	C773.796753,484.943329 778.367859,480.952820 778.816956,474.153076 
	C779.254517,467.527496 774.961487,462.980225 769.154053,461.034332 
	C756.960083,456.948456 744.485474,453.707642 732.179016,449.946594 
	C726.353394,448.166168 720.495544,446.339386 714.927307,443.904510 
	C706.947815,440.415161 700.443542,435.081146 700.507446,425.475677 
	C700.574097,415.483795 706.541565,409.405090 715.908447,405.847504 
z"/>
<path fill="#F8F8F8" opacity="1.000000" stroke="none" 
	d="
M866.647644,497.863342 
	C848.536194,498.898438 831.005554,498.440216 813.946350,492.988190 
	C812.705444,492.591583 811.478638,492.151062 810.163025,491.702972 
	C810.163025,488.434967 810.163025,485.298767 810.163025,482.171539 
	C816.299011,484.273499 822.190247,486.998901 828.380249,488.274353 
	C844.464905,491.588501 860.641541,492.455963 876.570496,487.101807 
	C882.829346,484.998047 887.498108,481.152069 887.907410,474.136230 
	C888.301086,467.387726 884.098145,462.980438 878.300476,461.040741 
	C866.108826,456.961792 853.603027,453.830688 841.352173,449.916382 
	C834.148743,447.614777 826.924988,445.077759 820.190735,441.691345 
	C813.477661,438.315613 809.387146,432.680847 809.778748,424.462585 
	C810.173096,416.186890 814.699768,410.880188 821.570435,407.374268 
	C830.333191,402.903015 839.872131,401.994690 849.597961,401.766876 
	C863.170898,401.448822 876.316284,403.583252 889.341980,407.254578 
	C889.341980,410.558685 889.341980,413.641327 889.341980,416.528839 
	C882.079285,414.456024 875.110901,411.843567 867.905701,410.546967 
	C854.880066,408.202942 841.801697,408.228638 829.101135,412.799561 
	C827.409912,413.408264 825.713318,414.213776 824.273132,415.273193 
	C816.699341,420.844543 816.412292,430.103241 824.662537,434.399139 
	C832.757507,438.614166 841.818481,441.036011 850.558105,443.935425 
	C861.346191,447.514465 872.486267,450.160675 883.005554,454.378693 
	C890.513794,457.389313 896.594604,462.741119 897.059265,472.085022 
	C897.496216,480.870697 893.678406,487.470337 886.166931,491.210999 
	C880.193726,494.185638 873.478455,495.670166 866.647644,497.863342 
z"/>
<path fill="#F6F6F6" opacity="1.000000" stroke="none" 
	d="
M568.846802,438.995117 
	C568.846802,458.114532 568.846802,477.233948 568.846802,496.327545 
	C562.904419,498.025146 558.868591,496.006683 554.732422,491.744751 
	C530.481201,466.756042 505.927490,442.060852 481.473145,417.269287 
	C480.920776,416.709320 480.337128,416.180145 479.106689,415.004822 
	C479.106689,442.657501 479.106689,469.512634 479.106689,496.609375 
	C476.035675,496.609375 473.458374,496.609375 470.512207,496.609375 
	C470.512207,465.583984 470.512207,434.696136 470.512207,403.507233 
	C475.818542,402.614929 480.020691,403.093781 484.263397,407.494873 
	C507.967285,432.083405 532.056824,456.300049 555.985474,480.672363 
	C557.133606,481.841858 558.006714,483.281433 559.007935,484.595184 
	C559.505310,484.377136 560.002747,484.159088 560.500122,483.941040 
	C560.500122,471.256531 560.500122,458.572052 560.962280,445.419800 
	C563.898560,442.966431 566.372681,440.980774 568.846802,438.995117 
z"/>
<path fill="#F6F6F6" opacity="1.000000" stroke="none" 
	d="
M291.099670,419.003052 
	C291.086884,435.321533 290.821838,451.145874 291.137573,466.958649 
	C291.412659,480.734711 281.829132,490.458679 271.948608,493.857025 
	C253.498779,500.202759 234.797577,500.180573 216.324112,493.890289 
	C203.958160,489.679657 197.054810,479.594849 197.011154,466.589844 
	C196.940826,445.637390 196.992264,424.684479 196.992264,403.437378 
	C199.910889,403.437378 202.498413,403.437378 205.919037,403.437378 
	C205.919037,405.122253 205.919083,406.867249 205.919052,408.612213 
	C205.918747,427.096252 206.311523,445.591766 205.770660,464.059967 
	C205.446198,475.139069 210.272522,482.258423 220.008850,486.026001 
	C236.938431,492.577057 253.995041,492.679932 270.623474,484.842285 
	C278.484558,481.137054 282.449707,474.846985 282.336060,465.784088 
	C282.091797,446.303986 282.257263,426.818726 282.266846,407.335571 
	C282.267395,406.192139 282.373138,405.048767 282.448944,403.522522 
	C285.171936,403.522522 287.744415,403.522522 291.099701,403.522522 
	C291.099701,408.323334 291.099701,413.413635 291.099670,419.003052 
z"/>
<path fill="#F4F4F4" opacity="1.000000" stroke="none" 
	d="
M791.545532,556.591187 
	C785.268250,541.048523 779.159424,525.854736 772.890442,510.262848 
	C775.319092,510.262848 777.510132,510.262848 780.002502,510.262848 
	C788.333191,531.153870 796.729736,552.209961 805.629089,574.526855 
	C808.681824,566.817261 811.365356,560.207581 813.921692,553.549011 
	C819.032837,540.236084 824.230652,526.952393 829.039551,513.530090 
	C830.311523,509.979950 832.453247,509.940216 835.398621,509.814087 
	C838.365051,509.687042 839.699402,510.665802 840.761414,513.495850 
	C848.030823,532.866333 855.516968,552.155457 862.940918,571.467834 
	C863.167358,572.056885 863.478943,572.613159 864.261230,574.257263 
	C867.090759,567.271729 869.592468,561.164307 872.041382,555.035706 
	C877.333313,541.792114 882.854065,528.630981 887.736267,515.237427 
	C889.456726,510.517822 891.822327,508.939606 896.915710,510.299469 
	C892.310852,521.796692 887.717651,533.260437 883.127747,544.725586 
	C879.429321,553.963867 875.706787,563.192627 872.047241,572.446350 
	C868.804688,580.645691 868.836487,580.658264 859.386719,579.684387 
	C851.425049,559.234192 843.451782,538.754089 834.908691,516.810364 
	C826.440002,538.623901 818.502014,559.070496 810.551575,579.549194 
	C810.292114,579.665894 809.998413,579.903809 809.692993,579.919922 
	C800.914368,580.384888 800.955200,580.365479 797.816406,572.178345 
	C795.857971,567.069885 793.753052,562.017517 791.545532,556.591187 
z"/>
<path fill="#F3F3F3" opacity="1.000000" stroke="none" 
	d="
M709.136719,509.136597 
	C722.829102,508.084808 735.908447,508.425232 747.627930,515.770691 
	C759.558655,523.248657 763.876892,534.583740 762.925720,548.191956 
	C762.011841,561.266418 755.543579,571.026611 743.657532,576.258545 
	C727.241333,583.484558 710.193665,583.365540 693.816711,576.431885 
	C680.514465,570.799988 674.080200,559.653931 674.096619,545.166748 
	C674.113464,530.328491 680.597534,519.258423 694.381165,513.225342 
	C698.884888,511.254028 703.911865,510.478027 709.136719,509.136597 
M756.135864,542.655579 
	C755.737061,530.391296 749.875305,521.676453 738.374512,517.619934 
	C724.293701,512.653442 709.948608,512.724121 696.174133,518.811951 
	C686.988220,522.871826 681.974060,530.532104 681.091736,540.590393 
	C680.098206,551.917175 682.117432,562.310120 692.464966,568.966187 
	C704.362122,576.618958 717.656128,576.656372 730.950012,574.401428 
	C748.131226,571.487183 756.338440,561.117554 756.135864,542.655579 
z"/>
<path fill="#FAFAFA" opacity="1.000000" stroke="none" 
	d="
M423.045135,547.216675 
	C423.020386,556.316467 423.020386,564.931519 423.020386,573.931824 
	C440.483307,573.931824 457.554474,573.931824 474.855316,573.931824 
	C474.855316,576.056274 474.855316,577.793640 474.855316,579.772949 
	C455.387421,579.772949 435.977631,579.772949 416.279419,579.772949 
	C416.279419,556.725159 416.279419,533.663940 416.279419,510.260681 
	C435.337250,510.260681 454.539856,510.260681 474.022522,510.260681 
	C474.022522,511.919037 474.022522,513.660645 474.022522,515.869873 
	C457.213745,515.869873 440.318054,515.869873 423.221619,515.869873 
	C423.221619,524.065430 423.221619,531.802917 423.221619,539.869812 
	C439.298706,539.869812 455.221405,539.869812 471.492615,539.869812 
	C471.492615,541.895325 471.492615,543.601013 471.492615,545.934631 
	C466.586304,545.934631 461.650085,545.934204 456.713867,545.934692 
	C447.057220,545.935669 437.400299,545.901917 427.744202,545.973755 
	C426.184296,545.985352 424.627899,546.467346 423.045135,547.216675 
z"/>
<path fill="#F3F3F3" opacity="1.000000" stroke="none" 
	d="
M99.805641,574.683167 
	C108.541031,574.815308 116.898277,575.491821 125.128510,574.753174 
	C135.077927,573.860229 140.629639,569.086548 140.852600,562.974060 
	C141.049576,557.574158 135.866745,552.813293 126.767365,550.231628 
	C117.051056,547.475037 107.288620,544.880493 97.579575,542.099121 
	C95.365051,541.464661 93.208488,540.504028 91.161194,539.433472 
	C85.316101,536.377014 81.319580,532.079773 82.013229,524.869629 
	C82.673218,518.009460 87.113380,514.192200 93.013802,512.028259 
	C105.937515,507.288574 119.162201,508.067841 132.387421,510.626160 
	C135.478363,511.224030 138.512924,512.113403 141.690857,512.897644 
	C141.690857,515.254333 141.690857,517.381653 141.690857,520.061218 
	C131.828598,515.775635 121.710739,513.495911 111.146881,514.260803 
	C106.526009,514.595459 101.863770,515.275574 97.388138,516.442383 
	C92.874451,517.619202 89.112457,520.174927 88.727379,525.505188 
	C88.328667,531.024170 92.017944,533.686523 96.447174,535.183594 
	C103.968925,537.725891 111.771049,539.469910 119.213692,542.206543 
	C127.228111,545.153442 135.672684,547.808044 142.632553,552.510010 
	C150.313385,557.699158 149.375946,569.743164 141.214844,574.445007 
	C135.511322,577.730957 128.690643,579.920776 122.141434,580.708313 
	C110.909164,582.059082 99.558838,581.411011 88.509331,578.181763 
	C81.799149,576.220764 81.760658,576.352478 82.438606,569.410034 
	C88.062485,571.133972 93.716858,572.867249 99.805641,574.683167 
z"/>
<path fill="#F3F3F3" opacity="1.000000" stroke="none" 
	d="
M319.386230,574.760742 
	C316.227081,564.090454 310.004486,559.909729 298.781799,561.292664 
	C288.940094,562.505554 278.828888,561.649048 268.840546,561.481262 
	C265.966583,561.432983 264.224152,562.211426 263.048706,564.930603 
	C261.535095,568.432007 259.296295,571.639526 257.969543,575.197205 
	C256.328461,579.597778 253.586105,581.014771 248.619507,579.598938 
	C250.254837,576.369019 251.818558,573.191284 253.459579,570.053955 
	C263.452545,550.949036 273.404388,531.821777 283.585785,512.817627 
	C284.352295,511.386902 286.760437,510.187897 288.472290,510.093506 
	C290.187897,509.998871 292.908875,510.933563 293.612671,512.256042 
	C305.368195,534.345703 316.876831,556.566650 328.429260,578.764160 
	C328.574066,579.042358 328.573090,579.396362 328.673370,579.872498 
	C326.507477,579.872498 324.380981,579.872498 322.092255,579.872498 
	C321.275757,578.286194 320.445374,576.672974 319.386230,574.760742 
M291.763397,521.695129 
	C290.809448,520.017090 289.855530,518.339111 288.628876,516.181396 
	C281.681549,529.555420 275.040527,542.339905 268.285004,555.344727 
	C282.422180,555.344727 295.581635,555.344727 309.222290,555.344727 
	C303.334656,544.039124 297.696625,533.212891 291.763397,521.695129 
z"/>
<path fill="#F3F3F3" opacity="1.000000" stroke="none" 
	d="
M174.501770,571.523193 
	C163.391861,561.961609 160.597992,549.876465 163.394028,536.540466 
	C166.358185,522.402588 176.226273,514.422729 189.701004,510.892822 
	C206.547623,506.479614 222.941849,508.532562 238.946198,515.485535 
	C238.946198,517.814209 238.946198,520.106018 238.946198,521.131104 
	C229.850143,518.896667 220.714996,515.644348 211.334290,514.602112 
	C199.472321,513.284241 187.472702,514.815308 178.079529,523.260925 
	C168.155869,532.183472 167.198639,543.751282 170.950577,555.840942 
	C174.261414,566.509277 182.680573,571.608887 192.921692,573.842163 
	C208.867798,577.319275 224.242096,575.753479 238.553360,567.172852 
	C239.703537,574.436096 239.704559,574.439026 233.024704,576.752258 
	C217.843857,582.009338 202.472061,583.231201 187.062134,578.105469 
	C182.738953,576.667542 178.853806,573.912598 174.501770,571.523193 
z"/>
<path fill="#FAFAFA" opacity="1.000000" stroke="none" 
	d="
M537.137329,509.924011 
	C554.746033,509.923004 571.865295,509.923004 589.255615,509.923004 
	C589.255615,512.000854 589.255615,513.734863 589.255615,515.870239 
	C573.018616,515.870239 556.942627,515.870239 540.587463,515.870239 
	C540.587463,523.999268 540.587463,531.740356 540.587463,539.952393 
	C555.907776,539.952393 571.303589,539.952393 586.848328,539.952393 
	C586.848328,542.039429 586.848328,543.660645 586.848328,545.813477 
	C571.507568,545.813477 556.122620,545.813477 540.382507,545.813477 
	C540.382507,557.413940 540.382507,568.496399 540.382507,579.789734 
	C538.237183,579.789734 536.452026,579.789734 534.361206,579.789734 
	C534.255737,579.050537 534.009460,578.125977 534.008545,577.201111 
	C533.987183,556.058960 533.983887,534.916748 534.008728,513.774597 
	C534.010864,511.963837 533.171570,509.421112 537.137329,509.924011 
z"/>
<path fill="#F0F0F0" opacity="1.000000" stroke="none" 
	d="
M430.394043,455.999756 
	C430.394073,438.217712 430.394073,420.935669 430.394073,403.386597 
	C433.536377,403.386597 436.129944,403.386597 438.989441,403.386597 
	C438.989441,434.347076 438.989441,465.266663 438.989441,496.530334 
	C436.433441,496.530334 433.873199,496.530334 430.394043,496.530334 
	C430.394043,483.276123 430.394043,469.887939 430.394043,455.999756 
z"/>
<path fill="#FFFFFF" opacity="1.000000" stroke="none" 
	d="
M609.698975,472.531982 
	C609.698975,477.515228 609.698975,482.498505 609.698975,488.036469 
	C632.811035,488.036469 655.662720,488.036469 678.752258,488.036469 
	C678.752258,491.161774 678.752258,493.735748 678.752258,496.566284 
	C652.587097,496.566284 626.564514,496.566284 600.085388,496.566284 
	C600.085388,490.855804 600.085388,485.409668 600.504089,479.484619 
	C602.290894,477.947235 603.639771,476.862762 605.032166,475.837402 
	C606.566895,474.707306 608.141663,473.631470 609.698975,472.531982 
z"/>
<path fill="#FEFEFE" opacity="1.000000" stroke="none" 
	d="
M651.986694,579.996460 
	C636.522034,579.996521 621.556396,579.996521 606.259277,579.996521 
	C606.259277,556.676270 606.259277,533.505310 606.259277,510.133850 
	C608.062683,510.133850 609.821411,510.133850 611.995117,510.133850 
	C611.995117,531.205933 611.995117,552.257141 611.995117,573.864746 
	C629.256042,573.864746 646.122375,573.864746 663.136414,573.864746 
	C663.136414,576.044556 663.136414,577.667786 663.136414,579.996460 
	C659.633484,579.996460 656.059631,579.996460 651.986694,579.996460 
z"/>
<path fill="#FEFEFE" opacity="1.000000" stroke="none" 
	d="
M361.000854,580.000000 
	C354.858795,580.000061 349.216400,580.000061 343.251740,580.000061 
	C343.251740,556.653198 343.251740,533.481995 343.251740,510.121857 
	C345.109924,510.121857 346.864258,510.121857 349.024475,510.121857 
	C349.024475,531.241333 349.024475,552.295105 349.024475,573.894897 
	C366.279602,573.894897 383.147125,573.894897 400.158844,573.894897 
	C400.158844,576.069885 400.158844,577.697449 400.158844,580.000000 
	C387.299408,580.000000 374.399963,580.000000 361.000854,580.000000 
z"/>
<path fill="#FEFEFE" opacity="1.000000" stroke="none" 
	d="
M609.677917,438.060303 
	C610.296265,440.136505 608.434875,443.864685 613.553955,443.664795 
	C615.327026,446.438873 616.668091,448.778351 618.009216,451.117828 
	C615.747986,451.207794 613.486694,451.297760 610.498413,451.129181 
	C606.586548,447.567535 603.401733,444.264374 600.216919,440.961243 
	C600.216919,428.587616 600.216919,416.213989 600.216919,403.183075 
	C604.934753,403.183075 609.499939,403.183075 614.511475,403.617310 
	C613.647034,406.390533 612.336304,408.729523 611.025513,411.068512 
	C610.640930,411.502563 610.256287,411.936646 609.436401,412.708374 
	C602.558655,417.942932 605.140381,424.719055 605.712524,430.818115 
	C605.948547,433.334045 608.292603,435.652191 609.677917,438.060303 
z"/>
<path fill="#FEFEFE" opacity="1.000000" stroke="none" 
	d="
M568.933716,438.533875 
	C566.372681,440.980774 563.898560,442.966431 561.115112,444.975647 
	C560.805725,431.222321 560.805725,417.445465 560.805725,403.418030 
	C563.445618,403.418030 565.883728,403.418030 569.020569,403.418030 
	C569.020569,414.884552 569.020569,426.478607 568.933716,438.533875 
z"/>
<path fill="#D9D9D9" opacity="1.000000" stroke="none" 
	d="
M600.117432,441.423035 
	C603.401733,444.264374 606.586548,447.567535 610.083618,451.057800 
	C610.238464,458.101776 610.081116,464.958618 609.811401,472.173737 
	C608.141663,473.631470 606.566895,474.707306 605.032166,475.837402 
	C603.639771,476.862762 602.290894,477.947235 600.567383,479.022949 
	C600.147278,466.655090 600.082642,454.269958 600.117432,441.423035 
z"/>
<path fill="#F3F3F3" opacity="1.000000" stroke="none" 
	d="
M618.460571,451.252563 
	C616.668091,448.778351 615.327026,446.438873 613.980652,443.760376 
	C618.663208,443.329590 623.351074,443.237793 628.527832,443.560364 
	C631.250671,447.863464 632.692017,445.914459 634.042053,443.292511 
	C639.062500,443.256683 644.082947,443.220856 649.561523,443.638947 
	C648.010010,446.431854 646.000305,448.770874 643.990601,451.109863 
	C635.631042,451.202362 627.271423,451.294830 618.460571,451.252563 
z"/>
<path fill="#F3F3F3" opacity="1.000000" stroke="none" 
	d="
M611.473511,411.211853 
	C612.336304,408.729523 613.647034,406.390533 614.968506,403.708740 
	C623.351074,403.297638 631.723022,403.229370 640.567993,403.606445 
	C643.005127,407.173859 639.711670,408.769745 638.991394,411.112610 
	C629.968079,411.193481 620.944824,411.274353 611.473511,411.211853 
z"/>
<path fill="#FFFFFF" opacity="1.000000" stroke="none" 
	d="
M644.446411,451.230957 
	C646.000305,448.770874 648.010010,446.431854 650.017822,443.747528 
	C657.924133,443.402191 665.832214,443.402191 673.962219,443.402191 
	C673.962219,445.912994 673.962219,448.306122 673.962219,451.352081 
	C664.253296,451.352081 654.577759,451.352081 644.446411,451.230957 
z"/>
<path fill="#FEFEFE" opacity="1.000000" stroke="none" 
	d="
M661.025085,403.364502 
	C666.444031,403.364502 671.862976,403.364502 677.987061,403.364502 
	C677.987061,405.320221 677.987061,407.212952 677.740234,409.703125 
	C677.215393,410.515167 677.064392,410.797607 677.040283,411.147980 
	C672.990601,411.211273 668.940857,411.274597 664.413452,410.852478 
	C662.965454,408.032867 661.995239,405.698669 661.025085,403.364502 
z"/>
<path fill="#D4D4D4" opacity="1.000000" stroke="none" 
	d="
M609.794128,437.600616 
	C608.292603,435.652191 605.948547,433.334045 605.712524,430.818115 
	C605.140381,424.719055 602.558655,417.942932 609.340332,412.991577 
	C609.756531,421.005005 609.833435,429.072968 609.794128,437.600616 
z"/>
<path fill="#FEFEFE" opacity="1.000000" stroke="none" 
	d="
M639.444336,411.234985 
	C639.711670,408.769745 643.005127,407.173859 641.027100,403.709412 
	C644.037781,403.307983 647.062256,403.248962 650.524414,403.647766 
	C651.977783,406.436279 652.993530,408.766907 654.009216,411.097565 
	C649.305237,411.184174 644.601318,411.270782 639.444336,411.234985 
z"/>
<path fill="#F0F0F0" opacity="1.000000" stroke="none" 
	d="
M654.445740,411.234070 
	C652.993530,408.766907 651.977783,406.436279 650.967529,403.745758 
	C654.025818,403.309174 657.078674,403.232483 660.578369,403.260132 
	C661.995239,405.698669 662.965454,408.032867 663.964355,410.724854 
	C660.956055,411.178680 657.919189,411.274658 654.445740,411.234070 
z"/>
<path fill="#D4D4D4" opacity="1.000000" stroke="none" 
	d="
M633.627075,443.186646 
	C632.692017,445.914459 631.250671,447.863464 628.986450,443.631622 
	C630.374878,443.219238 631.793457,443.150024 633.627075,443.186646 
z"/>
<path fill="#D4D4D4" opacity="1.000000" stroke="none" 
	d="
M677.356323,411.154083 
	C677.064392,410.797607 677.215393,410.515167 677.683472,410.143616 
	C677.806396,410.377808 677.739380,410.768982 677.356323,411.154083 
z"/>
<path fill="#030303" opacity="1.000000" stroke="none" 
	d="
M91.090622,488.007324 
	C90.788277,475.608643 90.788277,463.620972 90.788277,451.282990 
	C92.047607,451.193024 93.326408,451.003174 94.601509,451.025513 
	C111.738434,451.325348 128.889984,451.315948 146.006729,452.081024 
	C160.409470,452.724762 168.106964,463.854248 164.059067,477.022552 
	C161.423691,485.595764 154.198273,487.596741 146.823624,487.833191 
	C128.359467,488.425232 109.871422,488.272400 91.090622,488.007324 
z"/>
<path fill="#010101" opacity="1.000000" stroke="none" 
	d="
M109.000504,443.147766 
	C102.715080,443.147766 96.929459,443.147766 90.911652,443.147766 
	C90.911652,432.354065 90.911652,421.950531 90.911652,411.476715 
	C106.464897,411.476715 122.047684,411.382782 137.627747,411.546967 
	C141.237213,411.584991 144.862411,412.371979 148.436081,413.048370 
	C154.071121,414.114960 158.166656,418.076263 158.966431,422.943481 
	C160.254990,430.785370 158.434341,436.474915 152.597931,439.193115 
	C148.366959,441.163605 143.562180,442.595032 138.930618,442.868866 
	C129.149216,443.447266 119.313652,443.109619 109.000504,443.147766 
z"/>
<path fill="#020202" opacity="1.000000" stroke="none" 
	d="
M756.153687,543.120422 
	C756.338440,561.117554 748.131226,571.487183 730.950012,574.401428 
	C717.656128,576.656372 704.362122,576.618958 692.464966,568.966187 
	C682.117432,562.310120 680.098206,551.917175 681.091736,540.590393 
	C681.974060,530.532104 686.988220,522.871826 696.174133,518.811951 
	C709.948608,512.724121 724.293701,512.653442 738.374512,517.619934 
	C749.875305,521.676453 755.737061,530.391296 756.153687,543.120422 
z"/>
<path fill="#090909" opacity="1.000000" stroke="none" 
	d="
M291.910980,522.040894 
	C297.696625,533.212891 303.334656,544.039124 309.222290,555.344727 
	C295.581635,555.344727 282.422180,555.344727 268.285004,555.344727 
	C275.040527,542.339905 281.681549,529.555420 288.628876,516.181396 
	C289.855530,518.339111 290.809448,520.017090 291.910980,522.040894 
z"/>
</svg>